<?xml version="1.0" standalone="no"?>
<!DOCTYPE svg PUBLIC "-//W3C//DTD SVG 20010904//EN"
 "http://www.w3.org/TR/2001/REC-SVG-20010904/DTD/svg10.dtd">
<svg version="1.0" xmlns="http://www.w3.org/2000/svg"
 width="1024.000000pt" height="1024.000000pt" viewBox="0 0 1024.000000 1024.000000"
 preserveAspectRatio="xMidYMid meet">
<metadata>
Created by potrace 1.16, written by Peter Selinger 2001-2019
</metadata>
<g transform="translate(0.000000,1024.000000) scale(0.100000,-0.100000)"
fill="#000000" stroke="none">
<path d="M2855 8630 c-267 -36 -503 -227 -646 -521 -104 -214 -196 -517 -224
-742 -3 -26 -10 -69 -14 -95 -5 -26 -12 -74 -15 -107 -3 -33 -11 -107 -17
-165 -18 -181 -28 -360 -29 -516 l0 -151 -42 -7 c-224 -36 -322 -380 -156
-546 35 -36 36 -47 18 -190 -5 -41 -23 -201 -40 -355 -40 -366 -70 -641 -75
-685 -2 -19 -7 -69 -11 -110 -3 -41 -8 -82 -9 -91 -2 -8 -10 -78 -19 -155 -9
-76 -21 -175 -26 -219 -6 -44 -17 -150 -25 -235 -22 -222 -25 -245 -35 -340
-6 -47 -12 -107 -15 -135 -3 -27 -7 -70 -10 -95 -2 -25 -7 -72 -10 -105 -3
-33 -14 -141 -25 -240 -11 -99 -23 -205 -26 -235 -3 -30 -9 -89 -14 -130 -5
-41 -12 -97 -15 -125 -3 -27 -9 -86 -15 -130 -8 -68 -35 -325 -56 -540 -3 -33
-10 -89 -15 -125 -5 -36 -9 -91 -9 -122 0 -49 3 -60 23 -72 22 -14 209 -48
231 -41 6 2 45 7 86 10 114 11 122 12 168 24 23 7 47 9 52 6 5 -3 11 -1 15 5
3 5 18 7 33 4 22 -4 24 -3 12 6 -12 9 -8 10 18 5 18 -4 32 -2 32 3 0 5 7 13
16 16 8 3 12 2 9 -4 -3 -6 1 -10 10 -10 9 0 13 5 10 10 -5 9 24 15 49 11 5 -1
6 6 2 16 -6 17 -5 17 8 0 13 -17 14 -16 19 3 3 11 9 19 14 18 5 -2 23 12 41
30 21 22 32 28 32 17 0 -19 34 -20 54 0 19 19 30 19 23 0 -4 -8 -2 -17 3 -20
6 -4 10 3 10 14 0 24 15 28 24 6 3 -8 11 -15 18 -14 10 0 10 2 0 6 -10 4 -10
8 0 21 11 13 10 15 -4 9 -22 -8 -32 7 -14 22 15 13 49 4 40 -10 -3 -5 0 -9 5
-9 6 0 11 5 11 12 0 6 3 8 7 5 3 -4 13 -1 21 6 13 9 14 9 8 0 -4 -7 -2 -13 4
-13 6 0 13 6 16 14 6 17 40 14 36 -3 -1 -8 8 -6 27 4 34 17 87 20 96 5 10 -17
32 -11 38 10 4 17 9 19 31 10 14 -5 26 -6 26 -1 0 10 67 26 90 22 19 -4 31
-22 25 -38 -2 -7 -1 -14 3 -17 4 -3 9 -22 10 -43 2 -28 0 -34 -8 -23 -5 8 -10
10 -10 3 0 -6 -9 -9 -22 -5 -17 4 -20 2 -15 -12 6 -14 4 -15 -14 -5 -15 8 -19
8 -15 0 4 -6 2 -11 -4 -11 -7 0 -9 -7 -6 -16 3 -8 2 -12 -4 -9 -5 3 -14 -4
-20 -16 -13 -23 -20 -21 -24 7 -2 10 -8 19 -15 20 -7 2 -7 1 -1 -3 7 -3 5 -12
-7 -26 -17 -20 -17 -20 0 -14 11 4 16 3 12 -4 -4 -6 -13 -8 -21 -5 -8 3 -14 1
-14 -4 0 -5 -7 -7 -15 -4 -12 5 -10 10 8 25 12 10 17 18 11 19 -6 0 -19 -9
-28 -19 -17 -18 -17 -20 4 -41 12 -12 25 -18 29 -14 9 13 41 16 41 4 0 -5 -7
-10 -17 -10 -9 0 -14 -3 -10 -6 3 -4 12 -4 19 -2 18 7 34 5 30 -5 -3 -11 16
-9 23 3 3 6 13 10 22 10 12 0 13 -3 4 -13 -15 -19 5 -37 41 -37 15 0 28 -5 28
-11 0 -5 5 -7 10 -4 6 3 10 1 10 -5 0 -17 62 -39 147 -52 122 -18 170 -15 247
16 69 28 165 82 177 99 4 6 14 7 23 4 9 -4 16 -2 16 2 0 5 -6 11 -12 14 -9 3
-6 11 9 24 13 11 20 23 16 26 -3 4 2 9 11 13 9 3 16 10 16 15 0 4 -8 5 -17 2
-16 -6 -16 -5 -4 10 7 9 9 17 4 17 -6 0 -8 11 -5 25 2 15 0 25 -7 25 -6 0 -11
5 -11 12 0 6 9 3 20 -7 13 -11 18 -25 14 -37 -3 -12 -1 -17 8 -15 7 2 10 2 7
0 -4 -2 -5 -13 -2 -23 6 -21 28 -27 38 -10 3 6 -1 7 -9 4 -18 -7 -22 11 -5 21
7 5 4 14 -7 26 -21 23 -7 25 18 2 16 -14 18 -14 18 0 0 8 6 18 13 21 8 3 6 10
-8 21 -20 17 -20 17 3 10 13 -4 22 -2 22 4 0 6 8 11 18 11 14 0 14 2 3 9 -8 5
-21 5 -30 1 -51 -26 -86 -38 -89 -30 -5 13 -58 13 -83 0 -19 -11 -24 -4 -20
27 1 7 -7 9 -19 6 -19 -5 -19 -6 -4 -18 24 -17 8 -38 -23 -30 -20 5 -24 3 -20
-9 4 -9 2 -16 -3 -16 -6 0 -11 10 -12 23 -2 36 -3 41 -11 55 -5 6 -5 17 -1 24
5 8 10 6 16 -8 8 -18 8 -18 5 1 -2 12 -9 19 -19 17 -13 -2 -16 3 -12 24 3 16
1 23 -6 19 -5 -3 -10 -2 -10 4 0 5 5 13 11 16 7 5 5 15 -6 31 -9 14 -18 39
-19 57 -2 18 -8 43 -14 57 -6 14 -22 90 -37 170 -14 80 -35 190 -47 245 -33
167 -37 155 62 181 128 33 341 89 469 123 63 17 116 29 117 28 1 -1 20 -87 43
-192 23 -104 46 -208 51 -230 8 -36 20 -96 26 -135 2 -8 5 -28 9 -45 37 -192
45 -237 41 -244 -5 -7 -38 -12 -108 -15 -16 0 -28 -5 -28 -10 0 -4 -11 -6 -25
-3 -14 2 -41 -1 -59 -7 -28 -10 -33 -16 -30 -39 1 -15 -2 -25 -7 -22 -5 4 -9
12 -9 20 0 22 -28 26 -35 4 -7 -21 -25 -26 -25 -7 0 6 -3 9 -6 6 -3 -4 0 -17
7 -30 11 -20 11 -22 -3 -10 -13 10 -17 10 -22 0 -3 -7 -4 -5 -3 6 1 13 -5 20
-23 22 -14 2 -20 1 -14 -3 6 -5 14 -18 18 -30 4 -13 11 -22 16 -20 4 1 8 -1 9
-5 3 -22 -1 -28 -16 -29 -10 0 -4 -5 12 -10 17 -5 31 -5 33 0 2 5 12 7 22 4
11 -3 20 -1 20 5 0 13 -29 24 -42 15 -6 -3 -8 -1 -4 5 3 6 14 10 24 10 9 0 26
3 37 7 l20 8 -20 -16 c-20 -16 -20 -16 2 -17 12 0 24 6 27 13 3 6 3 2 0 -10
-4 -18 -2 -22 10 -17 8 3 12 12 9 20 -4 12 1 14 25 9 17 -3 34 0 37 5 4 6 16
8 28 5 12 -2 16 -2 10 1 -26 11 -12 22 30 22 66 1 115 8 129 19 7 5 56 11 108
11 125 3 163 9 235 39 33 14 78 32 100 41 45 18 73 38 38 28 -18 -6 -20 -4
-16 14 6 22 0 25 -27 10 -15 -8 -22 -5 -35 12 -14 21 -38 87 -40 113 -1 6 -8
42 -17 80 -9 39 -26 113 -38 165 -11 52 -25 113 -31 135 -5 22 -12 50 -14 63
-2 13 -6 31 -9 40 -3 9 -8 33 -11 52 -3 19 -8 43 -11 52 -3 9 -7 25 -9 35 -5
27 -95 416 -100 433 -2 8 -11 44 -19 80 -8 36 -19 81 -25 100 -58 214 -81 314
-74 319 5 3 32 38 60 77 71 96 133 227 173 362 18 61 36 112 39 112 4 0 29
-32 56 -71 52 -73 56 -79 140 -176 75 -86 263 -271 270 -265 3 3 5 -1 5 -10 0
-8 11 -20 25 -26 14 -6 25 -16 25 -22 0 -5 7 -10 15 -10 14 0 31 -12 80 -57
14 -12 34 -24 45 -28 11 -3 20 -10 20 -14 0 -5 14 -14 30 -21 17 -7 28 -15 26
-17 -11 -11 248 -140 414 -207 124 -50 326 -106 455 -127 44 -7 81 -13 82 -14
1 -1 11 -82 22 -181 12 -98 27 -235 35 -304 27 -227 65 -637 67 -715 2 -97 0
-108 -17 -101 -8 3 -13 2 -10 -3 3 -5 -5 -11 -19 -13 -13 -3 -26 0 -28 6 -3 7
-16 5 -37 -7 -27 -14 -35 -15 -41 -5 -7 10 -9 10 -9 1 0 -15 -36 -17 -45 -3
-3 5 -12 10 -18 9 -9 0 -9 -2 1 -6 6 -2 12 -8 12 -12 0 -11 -43 -7 -67 7 -20
11 -22 10 -16 -4 4 -11 2 -15 -4 -11 -6 4 -13 1 -16 -5 -3 -10 -8 -9 -22 2
-11 9 -16 10 -11 3 5 -9 1 -13 -12 -13 -10 0 -37 -9 -60 -20 -22 -11 -45 -20
-50 -20 -5 0 -21 -9 -36 -21 -14 -11 -31 -17 -38 -13 -7 5 -9 2 -6 -7 8 -20
-17 -53 -33 -43 -9 5 -9 3 -3 -7 5 -8 9 -30 10 -49 2 -53 6 -63 40 -81 79 -44
393 -80 720 -82 176 -2 221 0 217 10 -4 9 0 11 11 7 9 -3 16 -9 16 -13 0 -4
14 -6 30 -3 21 3 30 0 30 -9 1 -9 4 -8 11 4 5 9 19 17 29 17 12 0 20 7 20 18
1 15 2 15 16 -3 11 -14 18 -16 21 -7 3 6 8 10 13 7 5 -3 17 6 28 20 11 14 23
21 26 16 3 -5 -1 -11 -9 -15 -8 -3 -15 -15 -15 -26 0 -18 2 -19 20 -8 11 7 15
15 10 16 -7 3 -7 9 1 18 18 22 26 17 21 -15 -4 -30 11 -50 24 -30 4 8 3 9 -4
5 -8 -5 -12 0 -12 13 0 11 5 23 12 27 8 5 9 2 5 -9 -9 -23 6 -21 20 3 9 14 10
27 2 47 -8 21 -7 25 1 17 7 -7 13 -23 13 -37 2 -21 7 -25 32 -25 53 0 85 -4
85 -11 -1 -16 -19 -33 -29 -27 -7 5 -8 1 -4 -10 6 -15 8 -15 25 6 10 12 18 28
18 36 0 8 6 14 14 14 8 0 13 -8 12 -17 0 -10 7 -18 19 -20 11 -1 14 0 8 3 -22
10 -14 21 12 16 14 -2 22 -8 19 -13 -3 -5 0 -9 6 -9 6 0 15 11 20 25 10 26 24
32 35 16 3 -6 -4 -15 -15 -21 -11 -6 -18 -16 -14 -22 4 -7 10 -5 16 6 5 9 13
14 19 11 5 -4 9 -1 9 5 0 7 9 5 22 -4 28 -20 38 -20 38 -2 0 9 13 13 40 13 36
0 45 -6 41 -30 -1 -5 3 -6 8 -2 6 3 8 12 5 19 -3 7 2 19 11 26 14 12 14 15 -1
38 -9 13 -11 22 -6 18 6 -3 13 4 15 16 4 18 5 16 5 -7 0 -16 3 -40 7 -52 5
-16 3 -23 -6 -23 -7 0 -9 -3 -6 -6 4 -4 13 -1 22 6 17 14 21 50 5 50 -5 0 -10
5 -10 10 0 6 6 9 13 8 6 -2 11 3 9 10 -1 8 2 11 8 7 6 -3 7 -11 3 -18 -18 -29
0 -99 23 -90 8 3 14 1 14 -5 0 -5 7 -13 16 -16 14 -5 15 -4 5 8 -10 11 -8 15
6 19 10 3 4 5 -14 6 -32 1 -51 15 -34 25 5 4 11 0 14 -6 4 -10 7 -11 18 0 10
9 10 12 0 12 -7 0 -9 5 -5 12 4 6 -1 17 -10 24 -11 8 -13 14 -7 19 6 3 11 1
11 -4 0 -6 7 -11 15 -11 8 0 15 -8 16 -17 0 -11 3 -13 6 -5 2 6 9 12 14 12 4
0 6 -6 3 -14 -10 -27 40 -43 63 -20 8 8 20 14 26 14 8 0 7 -4 -1 -12 -15 -15
-16 -31 0 -22 7 5 9 2 5 -9 -3 -9 0 -18 8 -21 11 -4 12 0 5 19 -6 16 -6 27 1
31 6 3 8 12 5 20 -10 27 40 16 52 -12 8 -15 19 -24 30 -22 9 1 23 -1 30 -6 11
-7 11 -4 0 13 -7 12 -16 21 -21 21 -4 0 -5 -5 -2 -10 3 -6 -1 -10 -9 -10 -15
0 -20 11 -17 36 1 7 -5 14 -14 18 -17 6 -20 32 -4 41 6 4 9 0 7 -10 -2 -10 3
-20 11 -23 8 -2 11 0 8 5 -3 5 -2 15 4 23 5 10 9 11 9 3 0 -7 7 -10 18 -7 16
5 16 5 0 -6 -20 -12 -24 -35 -8 -45 6 -4 7 1 4 12 -3 10 5 1 17 -19 27 -43 36
-46 54 -22 17 24 8 59 -12 43 -8 -7 -12 -18 -9 -26 3 -7 1 -13 -3 -13 -5 0
-12 7 -15 16 -8 22 22 45 52 40 22 -3 22 -3 5 18 -17 19 -17 20 0 7 9 -7 17
-10 17 -5 0 5 7 -2 16 -14 11 -16 22 -21 36 -16 15 4 19 2 15 -7 -2 -8 -11
-13 -18 -11 -12 3 -12 1 -1 -10 11 -11 16 -10 26 5 14 18 32 24 21 7 -3 -6 -1
-10 4 -10 6 0 11 6 11 14 0 22 21 31 32 15 8 -11 9 -10 4 4 -8 24 27 59 44 43
10 -8 11 -8 7 0 -4 7 0 15 9 18 22 8 26 8 19 -4 -3 -5 1 -10 9 -10 9 0 19 0
23 -1 4 0 9 4 11 10 4 12 -68 27 -77 15 -8 -12 -93 -15 -86 -4 3 5 -4 14 -15
20 -11 6 -18 15 -15 21 4 5 0 10 -7 10 -7 1 -20 2 -28 3 -8 0 -16 13 -18 28
-3 25 -6 26 -29 17 -14 -5 -28 -7 -31 -4 -3 2 -13 -5 -24 -17 -10 -12 -21 -18
-25 -14 -8 7 31 46 47 46 5 0 10 5 10 11 0 6 10 19 22 28 15 13 18 20 9 25 -6
4 -11 4 -10 -1 3 -20 -2 -24 -16 -13 -22 19 -44 -3 -25 -25 10 -13 9 -15 -9
-15 -14 0 -21 6 -21 20 0 11 -4 20 -10 20 -13 0 -13 -12 0 -45 8 -22 7 -27
-15 -37 -13 -6 -22 -15 -19 -19 3 -5 0 -9 -6 -9 -6 0 -8 -5 -4 -12 5 -9 2 -9
-9 1 -12 9 -21 10 -30 3 -18 -16 -54 12 -39 31 9 10 9 16 0 25 -9 9 -8 12 5
12 9 0 17 -4 17 -10 0 -5 6 -7 14 -4 7 3 16 -2 20 -11 4 -13 1 -15 -13 -10
-11 3 -22 1 -26 -5 -11 -18 0 -21 30 -10 26 10 27 11 11 35 -16 24 -16 24 10
15 33 -13 47 -4 31 20 -7 13 -18 18 -29 14 -10 -3 -18 0 -18 6 0 6 4 9 9 6 4
-3 13 6 20 20 8 19 8 24 -1 18 -8 -5 -9 -2 -5 9 3 10 2 17 -2 17 -15 0 -20
-27 -8 -39 9 -9 8 -11 -7 -5 -10 4 -21 2 -26 -5 -5 -9 -10 -4 -14 15 -4 15
-14 37 -23 48 -10 14 -14 16 -10 4 6 -18 -19 -33 -28 -17 -4 5 -11 7 -16 3 -6
-3 -3 -11 7 -18 11 -8 13 -15 7 -19 -6 -4 -14 0 -17 9 -5 12 -14 15 -35 11
-38 -8 -44 0 -19 25 11 11 17 23 13 26 -3 4 -10 0 -16 -8 -8 -13 -10 -13 -19
0 -5 8 -7 22 -4 30 3 9 -2 7 -14 -5 -14 -15 -16 -21 -5 -23 16 -4 17 -18 2
-28 -6 -3 -15 -1 -19 6 -6 10 -9 9 -12 -1 -4 -11 -9 -12 -26 -2 -13 8 -23 9
-27 3 -11 -18 -42 24 -48 65 -3 22 -21 114 -40 205 -38 183 -49 247 -72 395
-8 55 -20 123 -25 150 -11 58 -10 53 -49 300 -23 145 -28 191 -18 197 6 4 50
19 97 33 47 15 101 34 120 42 19 8 50 21 69 29 18 8 36 13 38 10 3 -3 14 4 26
14 11 11 23 17 28 15 4 -3 27 5 51 16 23 12 54 27 68 32 25 11 123 66 170 96
14 8 27 16 30 16 3 0 21 12 41 28 20 15 39 27 42 27 7 0 38 24 69 53 10 9 21
17 24 17 8 0 98 70 149 116 111 100 139 124 147 124 4 0 8 5 8 11 0 7 19 32
43 57 23 25 51 55 63 68 12 12 31 38 43 58 13 20 26 36 31 36 5 0 11 8 14 18
3 9 16 28 28 42 34 37 108 147 108 159 0 6 5 11 10 11 6 0 10 4 10 10 0 5 16
34 35 64 19 30 35 62 35 71 0 8 4 15 8 15 9 0 88 164 97 200 4 18 40 120 50
145 12 28 49 168 60 225 3 14 10 43 15 65 15 62 42 216 46 260 1 22 6 68 9
102 10 95 12 334 3 431 -8 86 -44 348 -53 387 -51 216 -132 470 -175 547 -6
10 -10 25 -10 33 0 8 -5 15 -11 15 -5 0 -7 5 -4 10 3 6 -2 22 -13 38 -10 15
-26 43 -36 62 -39 80 -145 248 -214 340 -96 129 -289 334 -377 401 -16 13 -46
38 -65 56 -19 18 -44 36 -54 39 -11 4 -29 16 -41 28 -31 29 -64 56 -70 56 -6
0 -86 51 -95 60 -6 6 -102 58 -137 75 -13 5 -23 13 -23 18 0 4 -6 7 -14 7 -12
0 -85 33 -176 80 -20 10 -56 23 -80 29 -25 7 -58 18 -75 25 -27 12 -84 33
-110 40 -5 2 -17 6 -25 9 -8 3 -37 11 -65 17 -27 6 -77 18 -110 26 -100 23
-175 34 -280 42 -174 11 -473 5 -605 -13 -100 -14 -173 -27 -225 -40 -33 -9
-73 -18 -90 -21 -16 -3 -34 -9 -39 -14 -5 -5 -14 -6 -21 -4 -7 3 -16 1 -20 -5
-3 -6 -17 -11 -30 -11 -13 0 -27 -4 -30 -10 -3 -5 -13 -10 -22 -10 -8 0 -29
-6 -46 -14 -18 -8 -82 -35 -142 -59 -61 -25 -128 -55 -150 -68 -22 -12 -62
-33 -90 -47 -45 -21 -172 -99 -185 -112 -3 -3 -18 -12 -34 -20 -16 -8 -42 -27
-57 -41 -15 -14 -40 -34 -56 -44 -77 -50 -403 -382 -403 -410 0 -5 -25 -37
-47 -60 -7 -8 -13 -16 -13 -20 0 -3 -17 -32 -37 -63 -21 -31 -44 -68 -51 -82
-7 -14 -21 -36 -31 -49 l-19 -24 -7 44 c-9 51 -74 310 -105 419 -12 41 -25 89
-30 105 -13 50 -85 254 -124 355 -42 108 -123 269 -172 348 -19 29 -34 55 -34
58 0 6 -72 112 -105 154 -11 14 -61 66 -111 115 -96 94 -182 147 -291 179 -66
19 -219 27 -298 16z m95 -41 c-141 -57 -250 -145 -337 -271 -86 -125 -129
-226 -213 -503 -5 -16 -18 -75 -30 -130 -20 -93 -27 -135 -65 -384 -34 -219
-55 -595 -56 -1005 0 -212 -3 -261 -15 -273 -12 -13 -14 -13 -14 0 0 8 -10 45
-23 83 -31 97 -106 181 -188 210 l-47 17 -4 66 c-7 115 1 379 17 551 2 25 7
74 10 110 3 36 10 94 16 130 5 36 11 79 13 95 33 260 108 541 201 747 161 359
419 562 715 566 40 1 42 -1 20 -9z m243 -24 c319 -112 620 -615 810 -1355 76
-296 90 -362 77 -370 -6 -4 -12 -21 -12 -38 -1 -34 -12 -42 -22 -17 -3 8 0 15
7 15 7 1 5 6 -5 14 -11 8 -24 42 -32 82 -38 183 -188 677 -236 781 -11 24 -20
49 -20 56 0 16 -110 224 -157 297 -84 130 -111 166 -168 224 -117 118 -178
158 -282 182 -109 25 -198 8 -294 -57 -108 -73 -207 -210 -279 -389 -40 -96
-106 -329 -130 -455 -11 -60 -23 -119 -26 -130 -12 -48 -35 -245 -50 -420 -27
-337 -27 -922 1 -1148 3 -23 9 -89 15 -147 6 -58 13 -118 16 -135 35 -194 86
-454 94 -483 5 -20 19 -77 30 -127 21 -93 85 -315 100 -350 5 -11 18 -46 29
-79 18 -51 18 -60 6 -73 -8 -8 -15 -20 -15 -26 0 -7 5 -4 11 6 15 25 32 21 23
-5 -3 -13 -3 -20 2 -15 4 4 16 -14 26 -40 22 -58 22 -59 4 -43 -8 6 -16 24
-18 38 -2 22 -9 27 -33 29 -28 2 -28 1 -5 -5 19 -6 25 -15 26 -39 1 -18 11
-47 22 -65 26 -44 36 -78 23 -78 -6 0 -11 6 -11 14 0 8 -4 18 -10 21 -6 4 -7
-1 -3 -12 3 -10 3 -15 -1 -11 -4 3 -9 19 -11 34 -1 16 -8 30 -14 32 -6 2 -11
15 -11 28 0 13 -5 24 -11 24 -8 0 -8 4 0 14 10 11 8 16 -9 21 -15 5 -20 13
-17 25 3 10 -1 27 -8 37 -23 33 -102 284 -149 468 -60 243 -106 483 -121 630
-3 33 -10 89 -16 125 -5 36 -10 109 -12 162 -1 54 -5 98 -9 98 -5 0 -8 11 -8
25 0 14 5 25 10 25 7 0 7 7 2 18 -4 9 -8 40 -8 69 1 28 -2 49 -6 46 -5 -2 -9
10 -10 26 -1 17 -3 43 -5 59 -7 67 -9 386 -2 589 10 307 17 381 60 645 33 206
55 321 76 398 106 393 268 640 488 746 90 43 175 46 278 9z m-153 -228 c73
-30 169 -97 236 -164 169 -169 355 -533 478 -933 30 -97 96 -337 112 -405 l5
-20 -12 20 c-21 34 -130 177 -183 240 -62 73 -198 205 -212 205 -1 0 -15 11
-29 24 -34 31 -319 226 -330 226 -4 0 -13 7 -21 15 -9 8 -26 16 -40 16 -13 1
-27 3 -31 4 -5 2 -18 6 -30 10 -13 4 -23 11 -23 16 0 4 -17 11 -37 15 -21 3
-43 12 -48 19 -10 12 -161 68 -215 79 -119 26 -120 26 -114 54 50 234 197 502
320 583 39 26 106 24 174 -4z m3490 -311 c63 -3 129 -9 145 -11 135 -24 208
-38 255 -52 115 -34 265 -85 275 -94 5 -5 18 -9 29 -9 17 0 258 -114 331 -157
203 -120 359 -239 516 -395 118 -117 124 -124 206 -229 208 -268 383 -633 453
-949 7 -30 16 -66 21 -80 11 -33 38 -191 45 -260 18 -189 21 -251 19 -390 -3
-156 -9 -238 -25 -340 -5 -30 -12 -75 -15 -100 -3 -25 -10 -61 -15 -80 -5 -19
-19 -73 -30 -120 -32 -125 -60 -221 -76 -257 -8 -18 -26 -62 -39 -98 -84 -223
-272 -506 -482 -725 -280 -294 -605 -496 -1008 -628 -257 -84 -421 -111 -723
-119 l-194 -6 3 34 c4 37 31 64 54 55 8 -3 15 -1 15 5 0 6 5 7 10 4 6 -3 10 1
10 10 0 13 8 16 45 12 25 -3 48 -1 51 4 3 5 10 7 15 4 5 -4 9 -1 9 5 0 6 5 8
12 4 8 -5 9 -2 5 9 -6 16 -4 16 23 2 25 -13 30 -13 30 -1 0 7 7 16 15 20 9 3
15 0 15 -10 0 -8 -4 -12 -10 -9 -5 3 -10 1 -10 -4 0 -17 67 -13 74 4 3 9 20
15 43 16 38 1 100 16 75 18 -7 1 -10 6 -6 12 5 8 10 6 16 -5 5 -9 14 -14 19
-11 5 4 6 12 3 18 -5 9 -4 9 6 0 9 -8 19 -9 32 -2 10 5 18 7 18 3 0 -3 6 -1
14 5 7 6 22 8 32 4 18 -7 18 -6 2 11 -10 9 -18 18 -18 20 0 1 16 0 36 -2 20
-3 46 0 57 6 26 12 67 21 120 25 39 4 61 22 52 45 -2 6 3 12 11 12 8 0 12 -4
9 -10 -3 -5 0 -10 9 -10 8 0 17 6 19 13 4 9 8 8 17 -3 9 -12 10 -9 5 15 -4 16
-3 27 1 23 3 -4 16 -3 28 3 19 9 19 9 4 -4 -10 -8 -18 -20 -18 -27 0 -9 5 -8
18 3 23 21 39 22 23 3 -10 -12 -8 -13 9 -9 11 3 23 10 27 16 3 6 1 7 -5 3 -7
-4 -12 -1 -12 7 0 9 11 15 28 16 15 0 41 1 57 2 26 0 27 2 10 9 -11 5 -14 9
-7 9 24 2 27 3 41 14 12 10 13 9 8 -8 -5 -13 3 -8 22 14 16 18 34 30 40 27 7
-5 9 -1 5 8 -7 19 7 21 24 4 9 -9 12 -8 12 8 0 11 -3 24 -7 30 -5 5 1 -1 12
-13 l20 -22 22 25 c16 18 29 24 43 19 11 -3 20 -3 20 2 0 5 -12 10 -27 11 -14
1 -29 5 -32 8 -3 4 13 5 36 2 28 -2 39 0 33 7 -17 20 7 40 53 44 4 1 7 7 7 15
0 8 9 12 25 11 13 -2 35 5 48 16 14 10 27 15 31 12 3 -3 6 -1 6 5 0 5 -5 12
-11 14 -6 2 0 9 14 15 22 10 25 10 20 -3 -4 -10 0 -12 11 -8 9 3 13 10 10 15
-3 5 1 9 8 10 7 0 5 4 -6 8 -15 6 -12 11 25 36 24 16 48 28 52 27 5 -1 6 2 3
7 -9 14 20 21 34 8 9 -9 11 -7 8 12 -2 18 4 28 27 41 17 10 29 23 27 30 -2 7
3 10 12 7 9 -4 18 -2 21 3 4 6 1 10 -5 10 -7 0 -9 8 -4 23 7 22 6 22 -15 3
-24 -22 -29 -15 -5 8 11 12 20 13 34 6 14 -8 25 -7 40 2 25 16 25 25 0 31 -16
4 -15 4 3 3 28 -1 60 22 51 36 -4 6 -10 5 -16 -3 -8 -11 -9 -11 -5 1 2 8 11
14 20 14 9 -1 14 2 12 7 -3 4 9 23 27 41 18 18 32 37 30 41 -1 5 2 6 7 3 5 -3
14 1 21 9 11 13 10 14 -6 9 -10 -3 -4 4 13 17 18 13 31 30 28 37 -3 7 -1 11 4
8 5 -3 15 2 22 11 10 12 10 14 2 9 -7 -4 -13 -3 -13 3 0 14 22 26 45 24 16 -1
16 -1 3 3 -20 6 -20 6 -12 28 3 9 11 13 16 10 6 -4 7 2 3 17 -7 22 -7 22 9 6
23 -22 29 -22 16 2 -12 24 -4 48 21 62 11 5 19 16 19 23 0 8 7 20 16 27 18 14
64 84 64 95 0 4 -10 -1 -22 -12 -19 -15 -20 -16 -9 -1 7 9 11 17 7 17 -3 0 3
9 14 20 12 12 18 25 15 30 -4 6 5 14 19 20 14 5 26 15 26 21 0 8 -5 7 -17 -2
-15 -12 -16 -12 -10 4 4 10 7 24 7 30 0 8 4 7 12 -1 17 -17 23 -15 26 6 6 58
16 92 26 92 6 0 4 5 -4 10 -13 8 -12 10 3 10 10 0 15 5 12 10 -3 6 -2 10 3 10
5 0 12 9 15 20 3 13 0 20 -10 20 -8 0 -11 -5 -7 -12 4 -8 2 -8 -7 1 -11 10
-11 15 -1 18 6 3 12 11 12 18 0 7 10 16 23 20 19 6 19 8 5 12 -10 2 -18 8 -18
13 0 4 9 6 20 3 21 -6 23 -1 14 34 -4 13 -10 21 -14 18 -5 -3 -3 6 3 20 7 14
19 25 27 25 11 0 11 3 2 12 -15 15 -16 31 -1 22 9 -5 10 4 6 32 -4 24 -3 31 2
19 6 -15 9 -8 15 31 3 29 4 60 0 70 -5 16 -4 17 6 4 9 -12 10 -10 6 13 -7 31
1 35 20 10 11 -16 12 -14 8 15 -3 19 0 40 7 48 10 12 9 13 -4 8 -9 -3 -18 -15
-20 -27 -3 -12 -3 7 0 43 6 71 10 83 24 75 5 -4 9 8 9 24 0 18 -5 31 -12 31
-9 0 -8 4 2 11 11 8 12 12 3 16 -9 3 -10 10 -3 23 14 26 19 122 8 137 -6 7 -6
19 0 30 12 21 4 75 -12 85 -7 5 -6 8 4 8 13 0 13 1 0 10 -13 9 -13 11 0 21 11
8 12 12 2 16 -18 7 -4 23 16 17 9 -2 4 2 -13 10 -20 10 -24 15 -12 16 20 0 21
4 5 33 -6 12 -10 38 -10 59 1 21 -2 38 -7 38 -4 0 -6 11 -3 25 3 18 -2 31 -19
45 -13 10 -18 19 -11 20 6 0 12 -6 13 -12 0 -7 5 1 10 17 5 19 5 31 -1 33 -6
2 -10 19 -10 37 0 46 -10 71 -21 53 -7 -10 -9 -9 -9 5 0 9 5 17 10 17 6 0 10
4 10 10 0 5 -7 7 -15 4 -9 -4 -15 -1 -15 7 0 10 -3 10 -12 1 -17 -17 -24 -15
-25 9 -1 14 3 19 13 15 9 -4 14 1 14 15 0 11 5 17 10 14 6 -3 10 -1 10 4 0 6
-7 11 -15 11 -16 0 -25 26 -28 83 -1 21 -8 39 -16 42 -21 8 -22 2 -7 -43 9
-23 13 -42 10 -42 -2 0 2 -16 10 -35 8 -19 11 -35 7 -35 -15 0 -27 24 -30 59
-1 18 -9 51 -16 71 -12 35 -12 38 5 43 11 3 21 1 24 -4 2 -5 3 -4 2 3 -3 16
-66 18 -66 2 0 -7 4 -24 10 -38 5 -14 6 -26 1 -26 -11 0 -24 67 -16 80 3 6 13
10 21 10 18 0 18 10 -2 38 -9 13 -14 32 -11 42 3 11 0 21 -7 24 -7 3 -6 8 4
16 12 9 10 10 -10 8 -18 -2 -30 4 -42 22 -14 19 -18 21 -18 8 0 -9 5 -20 10
-23 6 -4 8 -10 5 -15 -8 -13 6 -40 21 -40 16 0 19 16 4 23 -6 3 -5 4 2 3 7 -1
14 -13 14 -25 1 -16 -3 -20 -16 -16 -14 4 -16 1 -13 -20 3 -13 9 -23 13 -20 4
3 7 -3 6 -13 0 -9 -12 -20 -26 -23 l-25 -7 28 -1 c33 -1 35 -18 5 -31 -13 -5
-20 -10 -15 -11 4 -1 12 -3 17 -4 6 -1 15 -3 20 -4 15 -2 12 -31 -4 -31 -9 0
-14 -12 -15 -32 -2 -64 -9 -93 -20 -90 -6 1 -11 -2 -11 -8 0 -5 9 -10 20 -10
11 0 20 4 20 10 0 5 9 2 20 -7 11 -9 17 -19 15 -21 -3 -3 -11 1 -20 8 -8 7
-16 9 -16 4 -1 -5 -2 -13 -4 -19 -1 -5 -3 -15 -3 -22 -1 -7 -8 -10 -15 -8 -12
5 -13 -2 -20 -107 -1 -10 -4 -18 -7 -18 -3 0 -5 -17 -4 -37 3 -48 -2 -55 -26
-41 -15 10 -22 10 -32 0 -9 -9 -9 -12 1 -12 7 0 9 -5 4 -12 -8 -14 -10 -25
-12 -83 0 -19 -5 -35 -11 -35 -5 0 -8 16 -6 35 1 19 -1 35 -6 35 -4 0 -8 -18
-8 -40 0 -22 5 -40 10 -40 6 0 10 -4 10 -10 0 -5 -6 -7 -13 -4 -8 3 -14 -2
-14 -11 0 -8 5 -15 11 -15 8 0 8 -2 0 -8 -6 -4 -13 -15 -17 -24 -3 -10 -11
-18 -17 -18 -6 0 -9 4 -6 8 3 5 -1 9 -9 9 -23 0 -18 -23 8 -35 20 -11 20 -11
-8 -6 -29 5 -29 5 -11 -10 11 -9 29 -14 40 -10 17 4 18 3 6 -5 -8 -6 -25 -8
-37 -4 -14 3 -23 1 -23 -6 0 -6 4 -11 8 -11 4 0 8 -9 8 -20 0 -11 -4 -20 -8
-20 -4 0 -8 -7 -8 -16 0 -10 5 -14 16 -10 8 3 12 2 9 -4 -3 -6 -17 -10 -30
-10 -18 0 -22 4 -18 19 3 10 0 22 -6 25 -6 4 -9 -8 -7 -34 2 -22 -1 -43 -6
-46 -4 -3 -6 -10 -2 -15 7 -13 23 -2 35 25 8 19 8 18 6 -8 -1 -17 -8 -30 -17
-32 -8 -1 -24 -6 -34 -10 -14 -5 -17 -4 -12 5 4 6 5 19 2 28 -5 12 -9 13 -21
3 -12 -10 -13 -16 -3 -27 10 -12 9 -17 -2 -23 -28 -16 -84 -60 -77 -60 5 0 21
10 37 22 26 19 32 20 55 8 14 -7 23 -15 20 -18 -2 -3 -11 1 -20 8 -13 11 -17
8 -27 -21 -7 -19 -11 -37 -10 -41 1 -5 -5 -8 -14 -8 -10 0 -14 6 -10 15 3 9 0
15 -10 15 -11 0 -12 -5 -6 -17 5 -10 7 -33 5 -52 -3 -22 -1 -31 6 -26 6 3 11
1 11 -4 0 -6 -6 -11 -14 -11 -8 0 -16 -8 -19 -17 -4 -17 -4 -17 -12 1 -5 12
-3 21 6 26 7 5 10 12 6 16 -10 10 -38 -16 -30 -29 4 -6 0 -8 -10 -4 -13 5 -14
2 -8 -16 5 -12 16 -21 25 -21 9 1 16 -4 16 -12 0 -7 -6 -11 -13 -8 -7 2 -32
-12 -55 -32 -24 -20 -49 -34 -57 -30 -12 4 -13 2 -2 -14 6 -11 15 -20 19 -20
3 0 5 -6 4 -12 -3 -21 -16 -38 -29 -38 -8 0 -9 2 -1 8 13 8 15 42 3 42 -9 0
-34 -77 -32 -97 0 -7 -8 -13 -18 -13 -11 0 -19 2 -19 5 0 9 25 50 35 57 6 4 7
8 4 8 -4 0 -3 16 1 35 8 34 7 35 -19 29 -34 -9 -39 -14 -13 -14 25 0 25 -21 0
-60 -8 -14 -19 -38 -22 -53 -4 -19 -12 -27 -20 -24 -16 6 -59 -40 -51 -53 4
-6 1 -10 -5 -10 -6 0 -18 -16 -26 -35 -8 -19 -17 -35 -20 -35 -3 0 -2 5 2 12
5 8 0 9 -14 6 -16 -4 -22 -2 -22 9 0 10 6 13 17 9 14 -6 32 8 33 25 0 3 -15 5
-33 5 -31 -1 -32 -3 -29 -33 2 -18 10 -33 17 -33 7 0 15 -6 18 -14 4 -10 -2
-13 -19 -12 -13 0 -24 4 -24 9 0 18 -18 5 -24 -18 -3 -13 -15 -29 -26 -35 -11
-6 -20 -15 -20 -21 0 -6 5 -7 10 -4 6 3 10 2 10 -3 0 -6 -6 -12 -13 -15 -8 -3
-14 5 -15 21 -3 36 -18 49 -27 22 -5 -15 -13 -20 -25 -17 -13 3 -17 0 -13 -9
3 -9 13 -12 24 -9 20 7 23 -2 13 -29 -5 -12 -10 -13 -26 -5 -16 9 -25 6 -44
-12 -24 -23 -24 -42 1 -32 8 3 15 0 15 -6 0 -6 -6 -11 -14 -11 -7 0 -19 -7
-26 -15 -11 -13 -10 -14 4 -9 10 4 16 1 16 -7 0 -7 -3 -10 -6 -7 -3 4 -19 2
-35 -2 -17 -5 -31 -5 -34 1 -9 14 -19 11 -43 -12 -12 -11 -20 -24 -17 -30 4
-5 -3 -9 -14 -9 -12 0 -21 -5 -21 -11 0 -5 6 -7 13 -3 6 4 2 -3 -11 -15 -16
-16 -29 -20 -40 -15 -15 6 -14 8 6 11 31 6 28 21 -4 19 -21 -1 -25 -5 -21 -23
4 -24 -8 -32 -16 -10 -4 8 -6 9 -6 0 -1 -6 6 -19 15 -27 14 -15 14 -16 -3 -16
-17 -1 -17 -1 -1 -14 16 -12 15 -13 -11 -12 -16 1 -27 4 -25 8 2 4 1 9 -4 12
-10 6 -75 -34 -68 -42 3 -3 12 1 21 8 9 7 19 10 22 6 9 -9 -16 -26 -39 -26
-23 0 -34 20 -17 31 11 7 10 9 -3 9 -10 0 -18 -6 -18 -12 0 -9 -4 -8 -10 2 -6
9 -10 10 -10 3 0 -6 5 -15 11 -19 8 -5 8 -9 -1 -14 -7 -4 -9 -13 -5 -19 5 -9
10 -9 21 0 20 16 25 8 10 -13 -12 -17 -14 -17 -32 0 -11 9 -19 26 -17 37 2 13
1 15 -4 5 -3 -8 -11 -19 -17 -23 -8 -6 -7 -10 2 -14 14 -6 16 -39 2 -48 -5 -3
-10 3 -10 14 0 15 -5 19 -16 14 -9 -3 -20 0 -24 7 -5 8 -9 9 -14 1 -4 -6 -2
-11 4 -11 6 0 2 -17 -10 -40 -11 -22 -23 -40 -26 -40 -2 0 0 9 6 20 6 11 7 26
3 33 -4 6 -6 20 -4 31 1 11 -2 16 -8 11 -6 -3 -9 -11 -6 -16 4 -5 1 -9 -4 -9
-6 0 -11 5 -11 10 0 6 -5 10 -11 10 -8 0 -9 -4 0 -13 6 -8 8 -17 4 -21 -4 -4
0 -4 10 0 13 5 16 2 11 -10 -7 -19 -30 -21 -37 -3 -4 10 -7 10 -18 0 -9 -10
-10 -13 -1 -13 7 0 12 -10 12 -22 l0 -22 -20 22 c-12 12 -24 22 -27 22 -4 0
-2 -5 5 -12 9 -9 9 -15 0 -25 -8 -10 -8 -17 0 -25 9 -9 12 -9 12 0 0 7 8 12
17 12 15 0 15 -2 -2 -14 -10 -7 -24 -13 -29 -11 -24 5 -46 18 -46 27 0 5 4 7
8 4 4 -2 8 4 8 13 0 15 -4 16 -17 8 -17 -11 -22 -47 -7 -47 4 0 4 -7 1 -17 -4
-10 -2 -14 5 -9 6 3 13 2 16 -3 8 -13 -22 -7 -36 7 -7 7 -19 12 -27 12 -13 1
-13 2 2 11 9 5 17 15 17 21 0 6 -11 -1 -25 -16 -13 -14 -31 -26 -39 -26 -8 0
-19 -8 -25 -17 -7 -14 -5 -21 12 -31 19 -12 19 -12 2 -7 -41 14 -116 13 -130
-2 -18 -18 -19 -30 -2 -36 6 -3 1 -6 -13 -6 -32 -2 -65 -21 -36 -21 26 0 15
-10 -19 -16 -22 -4 -26 -2 -21 11 18 44 17 49 -4 25 -13 -14 -31 -24 -41 -22
-11 2 -19 -2 -19 -7 0 -6 10 -11 23 -11 20 0 20 -1 -7 -15 -35 -19 -42 -19
-27 -1 7 9 8 17 2 20 -5 3 -11 2 -13 -4 -1 -5 -13 -7 -25 -4 -14 4 -20 11 -16
18 4 7 1 7 -8 -1 -11 -9 -19 -9 -26 -2 -8 8 -16 8 -30 -1 -16 -10 -16 -11 4
-7 13 3 26 1 29 -4 3 -5 10 -7 15 -4 5 4 9 1 9 -4 0 -6 7 -11 15 -11 8 0 15
-4 15 -9 0 -17 -31 -20 -70 -7 -22 8 -43 10 -46 5 -3 -5 0 -9 6 -9 7 0 10 -7
6 -15 -3 -8 -1 -15 4 -15 6 0 10 4 10 10 0 5 7 7 16 3 13 -5 10 -9 -12 -18
-33 -14 -46 -11 -37 10 3 8 1 16 -3 16 -38 6 -53 5 -48 -3 3 -5 12 -7 20 -4
15 6 17 2 8 -31 -4 -13 -11 -23 -16 -23 -5 0 -7 4 -4 8 2 4 1 14 -4 22 -8 13
-12 12 -24 -5 -8 -11 -12 -23 -10 -27 3 -5 -2 -8 -11 -8 -9 0 -14 4 -10 9 3 5
-3 12 -12 14 -11 3 -8 5 10 6 40 2 33 18 -8 17 -39 -1 -49 -26 -17 -46 16 -11
15 -11 -2 -6 -11 4 -26 0 -36 -9 -15 -13 -17 -13 -17 0 0 8 6 15 14 15 7 0 13
8 13 18 0 24 -57 25 -82 0 -10 -10 -16 -23 -13 -28 3 -5 -4 -12 -15 -15 -17
-5 -19 -10 -9 -21 7 -8 7 -14 1 -14 -18 0 -22 29 -5 39 15 8 15 10 1 24 -12
12 -22 14 -44 7 l-29 -10 28 4 c15 2 27 -1 27 -5 0 -5 -8 -9 -18 -9 -10 0 -23
-5 -30 -12 -9 -9 -12 -6 -12 15 0 14 8 31 18 36 9 6 14 11 9 11 -22 1 -43 -25
-39 -46 2 -14 0 -24 -7 -24 -7 0 -9 -5 -6 -10 8 -12 -5 -13 -24 -1 -7 5 -10
14 -7 20 4 6 12 8 18 5 6 -4 8 -2 5 3 -4 6 -16 13 -27 16 -11 3 -18 1 -15 -3
9 -15 -7 -40 -27 -40 -10 0 -16 5 -13 10 3 6 -1 10 -10 10 -11 0 -15 -5 -11
-16 3 -8 2 -12 -3 -9 -5 3 -12 1 -16 -4 -5 -9 -45 -12 -45 -4 0 2 10 8 23 13
15 6 -2 7 -50 4 -58 -3 -73 -1 -73 10 0 11 -5 12 -25 3 -24 -12 -24 -12 -3
-17 19 -5 19 -7 4 -19 -12 -10 -16 -10 -16 -1 0 7 -7 10 -14 7 -9 -4 -17 2
-21 14 -6 19 -8 20 -26 3 -10 -9 -16 -21 -13 -25 7 -11 1 -11 -30 1 -20 7 -29
5 -43 -8 -16 -16 -16 -16 -10 2 5 13 3 17 -7 13 -11 -4 -13 -1 -9 10 5 13 2
13 -20 -2 -15 -9 -27 -25 -28 -34 0 -10 -2 -11 -6 -3 -2 6 -9 12 -14 12 -6 0
-7 -6 -3 -12 5 -10 3 -10 -7 0 -12 11 -12 14 1 22 13 8 12 10 -3 10 -10 0 -16
4 -13 9 3 5 -1 12 -10 15 -11 4 -15 2 -11 -7 7 -19 -8 -41 -23 -32 -9 6 -9 9
1 16 7 4 10 12 5 16 -5 4 -10 4 -13 -2 -9 -26 -25 -40 -30 -27 -2 6 -9 10 -13
7 -5 -3 -11 -1 -15 5 -3 5 0 10 7 10 7 1 27 7 43 14 29 13 27 14 -30 10 -42
-2 -53 -1 -35 5 21 8 13 16 -12 13 -3 -1 -9 6 -12 14 -4 12 -1 14 14 9 12 -4
20 -2 20 6 0 7 -10 9 -30 6 -34 -7 -38 0 -12 19 16 12 15 13 -4 8 -25 -7 -43
24 -22 37 10 7 11 12 1 29 -16 25 -16 33 -1 24 8 -5 9 0 6 14 -5 16 -2 22 10
22 12 0 13 3 4 12 -16 16 -15 28 3 28 8 0 15 5 15 10 0 6 -4 10 -9 10 -5 0 -4
11 2 24 8 16 14 21 19 13 5 -7 8 -3 8 11 0 12 5 22 11 22 6 0 9 7 6 15 -4 8
-2 17 4 20 5 4 6 11 3 17 -5 7 -1 9 9 5 10 -4 14 -2 12 6 -3 7 9 27 25 46 16
18 28 37 25 41 -2 4 4 16 14 27 19 20 53 81 49 85 -1 2 11 23 28 48 17 25 50
81 74 125 24 44 58 107 76 140 19 33 34 63 34 68 0 14 -95 -4 -107 -20 -11
-14 -13 -14 -14 -2 0 11 -2 11 -6 1 -5 -13 -47 -35 -68 -37 -5 0 -27 -17 -48
-38 -21 -20 -45 -37 -53 -37 -8 0 -14 -4 -14 -9 0 -5 -12 -13 -27 -19 -16 -5
-39 -19 -52 -31 -13 -11 -27 -18 -31 -16 -4 3 -10 -2 -14 -10 -3 -8 -11 -15
-18 -15 -8 0 -49 -18 -93 -40 -43 -23 -84 -39 -92 -36 -7 3 -13 1 -13 -5 0 -6
-7 -8 -16 -5 -12 4 -15 2 -10 -9 4 -12 -3 -15 -33 -15 -22 0 -41 -5 -43 -11
-2 -6 -16 -12 -31 -12 -15 -1 -27 -6 -27 -11 0 -4 -7 -6 -15 -2 -8 3 -15 0
-15 -5 0 -6 -9 -9 -19 -6 -12 3 -22 -1 -26 -11 -4 -12 -8 -13 -17 -4 -17 17
-28 15 -28 -4 0 -14 -3 -14 -16 -3 -10 8 -18 9 -22 2 -10 -15 -170 -21 -277
-10 -154 16 -176 19 -230 34 -22 7 -53 14 -70 16 -16 2 -43 9 -58 15 -16 7
-33 10 -38 6 -5 -3 -11 1 -14 8 -3 7 -19 14 -37 15 -17 1 -34 6 -37 10 -3 5
-13 9 -21 11 -8 2 -27 9 -42 17 -16 8 -30 9 -34 4 -9 -16 -24 -10 -17 8 5 12
2 15 -10 10 -10 -4 -17 -2 -17 4 0 7 -11 9 -27 5 -24 -5 -25 -5 -9 5 24 15 0
32 -26 18 -12 -6 -18 -6 -18 0 0 5 -7 17 -16 25 -9 9 -17 22 -18 29 -6 27 -29
66 -37 61 -9 -5 -13 9 -10 34 1 6 -3 12 -9 12 -6 0 -14 8 -17 17 -7 19 -27 45
-60 80 -12 13 -19 23 -16 23 3 0 -1 8 -11 19 -34 37 17 76 66 50 12 -7 49 -37
81 -67 31 -30 57 -52 57 -48 0 20 -34 67 -83 114 -43 40 -63 52 -87 52 -18 0
-33 6 -36 15 -9 23 23 65 49 65 36 0 107 -51 171 -123 33 -37 61 -65 64 -63
10 10 -37 76 -99 140 -70 72 -76 80 -60 90 32 20 120 -62 199 -184 79 -121 86
-133 104 -172 15 -34 15 -37 0 -40 -26 -5 80 -54 183 -83 50 -14 140 -33 200
-42 309 -43 645 55 959 280 61 44 134 96 163 116 28 20 50 37 48 39 -7 7 -142
-66 -230 -125 -249 -166 -473 -255 -675 -269 -41 -3 -79 -7 -85 -8 -8 -3 -94
4 -225 18 -31 3 -103 23 -155 42 -27 10 -44 24 -52 42 -35 86 -71 254 -103
472 -28 188 -30 525 -6 705 49 349 163 678 345 990 54 92 159 247 180 265 3 3
33 37 66 75 85 100 179 190 269 260 22 17 51 39 65 51 100 81 312 202 486 279
33 14 76 33 95 41 36 16 63 26 195 67 74 23 141 42 190 54 62 14 284 43 375
49 58 4 106 7 107 8 3 2 162 -2 273 -8z m-3825 -392 c200 -58 248 -75 305
-113 30 -20 68 -42 84 -49 47 -21 215 -135 311 -213 194 -157 341 -332 447
-535 41 -77 98 -243 98 -284 0 -36 -58 -234 -70 -238 -6 -2 -8 -8 -5 -13 4 -5
1 -17 -5 -26 -10 -16 -11 -16 -7 3 5 22 -10 47 -31 52 -10 2 -12 -5 -7 -26 6
-30 3 -36 -45 -75 -27 -23 -33 -18 -37 32 -3 32 0 42 18 55 29 20 21 27 -11 9
-14 -7 -21 -13 -17 -13 5 0 5 -5 2 -10 -5 -8 -11 -8 -20 0 -19 16 -27 -3 -15
-35 12 -30 13 -41 3 -32 -7 7 -26 -26 -35 -61 -4 -13 -2 -22 5 -23 8 0 8 -2 0
-6 -9 -3 -10 -10 -3 -24 8 -14 7 -19 -1 -19 -11 0 -10 -9 5 -97 6 -39 33 -93
46 -93 6 0 10 -7 10 -15 0 -8 18 -28 39 -43 l39 -27 -1 -195 c-1 -227 8 -367
33 -510 16 -87 17 -93 34 -150 9 -29 14 -55 12 -58 -3 -2 -16 18 -29 45 -14
26 -39 66 -56 87 -17 22 -29 41 -27 43 5 5 -128 134 -152 148 -9 5 -37 12 -62
16 -25 4 -59 10 -76 14 -55 12 -82 -35 -88 -155 -2 -25 -6 -60 -10 -77 -10
-44 7 -92 59 -167 55 -80 77 -124 69 -138 -4 -7 -3 -8 4 -4 6 4 17 -5 26 -21
7 -15 28 -44 44 -63 17 -19 28 -38 26 -42 -3 -4 3 -8 13 -8 32 -1 77 -45 70
-70 -4 -16 -2 -20 11 -17 9 2 16 9 15 15 -2 7 2 12 8 12 6 0 9 -7 5 -15 -4
-11 2 -15 21 -15 37 0 104 -22 110 -36 7 -19 -52 -126 -143 -259 -55 -80 -196
-238 -270 -301 -67 -58 -228 -174 -242 -174 -10 0 -44 38 -85 93 -26 36 -27
38 -11 62 10 15 12 25 5 25 -6 0 -11 -6 -11 -14 0 -21 -19 -30 -26 -12 -5 14
21 51 35 51 3 0 5 4 3 9 -2 5 8 2 22 -7 22 -15 25 -15 37 -1 7 9 14 23 15 31
2 9 8 21 15 27 9 8 10 8 5 -1 -12 -21 13 -24 31 -3 10 11 26 20 36 20 14 0 18
5 14 20 -3 13 0 20 9 20 8 0 11 -6 8 -15 -4 -8 -1 -15 5 -15 6 0 11 10 11 21
0 23 20 43 59 59 14 6 21 16 18 24 -3 8 2 20 11 28 11 9 14 10 8 1 -5 -9 -1
-13 13 -13 33 0 50 11 44 27 -3 8 0 19 8 24 19 12 32 11 24 -1 -3 -6 1 -10 9
-10 8 0 18 5 22 12 4 7 3 8 -5 4 -8 -5 -11 2 -9 23 1 16 5 28 9 25 4 -2 13 4
20 13 10 12 10 14 2 9 -7 -4 -13 -2 -13 3 0 6 7 11 15 11 8 0 15 6 15 13 0 9
2 9 8 -1 6 -8 15 0 30 26 12 22 18 43 14 48 -4 4 2 2 12 -6 16 -12 18 -12 11
-1 -4 7 -8 23 -9 35 -1 14 -9 22 -23 24 -13 2 -23 7 -23 12 0 5 12 5 28 1 15
-5 38 -4 51 0 12 5 27 7 32 3 11 -7 11 7 1 24 -5 7 -16 10 -25 6 -12 -4 -17
-1 -17 10 0 9 -7 16 -15 16 -8 0 -15 5 -15 11 0 6 -6 9 -13 6 -10 -4 -13 2 -9
21 5 24 6 25 13 5 7 -20 49 -39 49 -22 0 5 -7 9 -15 9 -17 0 -34 29 -28 50 3
8 -5 1 -17 -16 -15 -23 -26 -30 -40 -27 -11 3 -17 9 -15 14 3 4 11 6 18 3 7
-2 18 5 25 16 10 16 10 20 0 18 -7 -2 -17 -7 -21 -13 -6 -6 -10 -5 -14 4 -5
11 -7 11 -14 0 -6 -10 -9 -10 -9 -2 0 9 -7 10 -26 3 -34 -13 -34 -13 -34 15 0
14 6 25 13 25 8 0 7 3 -3 10 -12 8 -12 10 3 16 9 3 17 10 17 16 0 5 -11 1 -24
-9 -18 -13 -23 -25 -20 -43 5 -24 5 -24 -10 -6 -20 25 -21 8 -1 -18 14 -19 11
-41 -5 -31 -4 3 -13 -2 -20 -10 -20 -24 -32 -17 -16 8 14 21 14 24 -4 35 -17
10 -20 10 -20 -4 0 -8 4 -12 10 -9 6 3 10 1 10 -5 0 -7 -7 -9 -16 -6 -12 4
-15 2 -10 -9 3 -8 1 -15 -3 -15 -14 0 -21 29 -9 36 7 4 6 9 -3 15 -10 6 -17 1
-25 -18 l-11 -27 -8 23 c-5 16 -2 27 6 33 11 7 9 8 -6 6 -21 -4 -26 -27 -13
-67 7 -19 6 -22 -9 -17 -21 9 -35 -14 -20 -34 9 -12 9 -13 -3 -3 -9 9 -19 9
-34 2 -20 -10 -20 -9 1 8 12 10 22 28 21 40 -2 25 -34 38 -42 17 -3 -8 0 -11
11 -7 11 4 14 1 12 -12 -2 -10 -11 -20 -19 -22 -12 -4 -12 -3 -2 5 11 7 7 11
-13 16 -15 4 -30 5 -33 1 -3 -3 -1 -5 5 -5 6 0 14 -7 17 -16 5 -12 0 -15 -22
-14 -42 3 -54 1 -47 -9 3 -5 -1 -16 -9 -24 -8 -8 -12 -17 -9 -21 4 -3 -3 -20
-15 -36 -12 -16 -22 -36 -22 -45 0 -8 -8 -15 -19 -15 -12 0 -22 -12 -29 -32
l-12 -33 6 40 c3 22 6 45 7 50 1 6 6 13 12 17 17 12 -8 63 -33 66 -16 3 -22
-2 -21 -15 0 -10 3 -13 6 -5 6 14 33 16 33 2 0 -5 -4 -10 -10 -10 -5 0 -10 -4
-10 -10 0 -5 7 -7 16 -3 12 4 15 2 12 -8 -6 -18 -48 -21 -48 -3 0 8 -4 14 -10
14 -5 0 -10 -4 -10 -10 0 -5 -7 -10 -15 -10 -8 0 -15 6 -15 13 0 8 -3 9 -8 1
-4 -6 -14 -14 -22 -17 -11 -4 -10 -6 5 -7 20 -1 20 -1 1 -15 -16 -12 -17 -15
-4 -15 8 0 21 -7 28 -15 9 -10 9 -15 1 -15 -6 0 -11 4 -11 9 0 4 -11 6 -25 3
-18 -3 -25 0 -25 12 0 10 -9 16 -25 16 -14 0 -25 -4 -25 -9 0 -5 7 -8 16 -7 9
0 19 -4 21 -11 3 -8 -4 -9 -23 -4 -22 6 -33 21 -61 86 -108 257 -166 427 -228
676 -49 198 -115 529 -108 542 2 4 16 7 31 7 40 1 108 35 143 72 114 121 111
384 -7 626 -38 78 -60 108 -141 190 l-96 97 7 185 c12 357 48 659 106 890 11
46 20 85 20 87 0 7 53 -6 185 -43z m1039 -128 c-3 -8 0 -17 7 -22 7 -4 10 -3
6 3 -4 6 1 17 10 24 9 8 14 9 10 3 -4 -7 -1 -14 6 -17 11 -4 63 -128 73 -172
2 -5 17 -61 34 -124 17 -63 29 -120 26 -127 -3 -8 -2 -14 3 -14 9 0 26 -56 36
-117 5 -33 3 -43 -12 -53 -15 -10 -16 -11 -1 -6 22 7 28 -3 17 -29 -7 -18 -8
-18 -8 -2 -1 14 -6 17 -21 12 -17 -5 -20 -2 -20 25 0 17 -4 29 -9 25 -10 -5
-16 10 -25 55 -5 28 -62 217 -108 360 -31 97 -45 190 -28 190 5 0 7 -6 4 -14z
m313 -768 c-3 -8 -6 -5 -6 6 -1 11 2 17 5 13 3 -3 4 -12 1 -19z m4462 -397
c-15 -5 -22 6 -14 19 6 9 10 9 16 -1 5 -8 4 -15 -2 -18z m-6091 -20 c28 -50
29 -106 2 -121 -11 -6 -24 -9 -29 -6 -11 7 -14 166 -3 166 4 0 18 -17 30 -39z
m-471 -59 c63 -45 99 -186 74 -289 -15 -61 -72 -148 -114 -173 -50 -31 -124
-27 -167 9 -107 88 -114 277 -15 407 54 71 157 92 222 46z m50 17 c38 -14 90
-65 114 -111 22 -44 24 -65 6 -82 -18 -18 -39 -2 -57 44 -22 56 -56 106 -92
134 -36 28 -23 35 29 15z m6496 -100 c-8 -29 -13 -23 -13 14 0 22 3 28 9 18 5
-7 6 -22 4 -32z m32 32 c3 -5 1 -12 -5 -16 -5 -3 -10 1 -10 9 0 18 6 21 15 7z
m-4810 -50 c-6 -5 -25 10 -25 20 0 5 6 4 14 -3 8 -7 12 -15 11 -17z m4825 3
c0 -2 -7 -4 -15 -4 -8 0 -15 4 -15 10 0 5 7 7 15 4 8 -4 15 -8 15 -10z m-45
-24 c3 -5 -1 -10 -9 -10 -8 0 -18 5 -21 10 -3 6 1 10 9 10 8 0 18 -4 21 -10z
m-4714 -54 c8 4 9 3 5 -4 -4 -7 -16 -12 -26 -12 -10 0 -22 -4 -25 -10 -3 -5
-1 -10 6 -10 7 0 10 -2 7 -5 -3 -3 -13 -2 -23 1 -16 7 -16 8 0 16 15 9 15 11
-1 29 -17 19 -16 19 14 3 18 -8 37 -12 43 -8z m39 14 c0 -5 -5 -10 -11 -10 -5
0 -7 5 -4 10 3 6 8 10 11 10 2 0 4 -4 4 -10z m4777 -52 c-3 -8 -6 -5 -6 6 -1
11 2 17 5 13 3 -3 4 -12 1 -19z m-93 -6 c3 -5 -1 -9 -9 -9 -8 0 -15 4 -15 9 0
4 4 8 9 8 6 0 12 -4 15 -8z m1 -32 c-3 -5 -11 -10 -16 -10 -6 0 -7 5 -4 10 3
6 11 10 16 10 6 0 7 -4 4 -10z m-35 -41 c0 -10 -4 -19 -10 -19 -5 0 -9 11 -8
24 3 28 18 24 18 -5z m30 11 c0 -5 -5 -10 -11 -10 -5 0 -7 5 -4 10 3 6 8 10
11 10 2 0 4 -4 4 -10z m-4700 -114 c0 -3 -4 -8 -10 -11 -5 -3 -10 -1 -10 4 0
6 5 11 10 11 6 0 10 -2 10 -4z m4618 -72 c6 3 13 2 17 -4 3 -5 -2 -10 -12 -10
-11 0 -23 -4 -29 -10 -6 -6 -15 -6 -24 0 -13 8 -12 10 3 10 9 0 17 8 17 18 0
13 2 14 9 3 5 -7 13 -11 19 -7z m-28 -54 c0 -5 -5 -10 -11 -10 -5 0 -7 5 -4
10 3 6 8 10 11 10 2 0 4 -4 4 -10z m20 -20 c0 -5 -5 -10 -11 -10 -5 0 -7 5 -4
10 3 6 8 10 11 10 2 0 4 -4 4 -10z m277 -172 c-3 -7 -5 -2 -5 12 0 14 2 19 5
13 2 -7 2 -19 0 -25z m-6802 -22 c34 1 63 -4 67 -10 5 -6 6 -29 3 -51 -2 -22
-7 -69 -10 -105 -3 -36 -19 -189 -36 -340 -17 -151 -34 -315 -39 -365 -5 -49
-14 -130 -19 -180 -6 -49 -13 -119 -16 -155 -3 -36 -10 -96 -15 -135 -10 -77
-11 -85 -41 -360 -11 -104 -22 -203 -24 -220 -2 -16 -11 -100 -20 -185 -8 -85
-17 -173 -20 -195 -2 -22 -14 -128 -25 -235 -12 -107 -23 -206 -25 -220 -2
-14 -9 -70 -15 -125 -5 -55 -15 -138 -20 -185 -6 -47 -15 -123 -20 -170 -10
-85 -17 -149 -44 -380 -9 -69 -18 -147 -21 -175 -3 -27 -10 -95 -16 -149 -7
-70 -15 -103 -26 -111 -11 -9 -13 -14 -5 -19 7 -4 12 -19 12 -34 0 -21 -2 -24
-10 -12 -8 12 -10 11 -10 -6 0 -14 -8 -24 -21 -27 -17 -5 -20 -2 -16 14 3 10
1 19 -4 19 -5 0 -9 -9 -9 -20 0 -11 -5 -20 -10 -20 -7 0 -9 43 -5 127 5 130 1
155 -11 68 -3 -28 -11 -53 -16 -56 -7 -4 -7 -9 0 -13 6 -4 7 -17 3 -34 -6 -19
-13 -26 -27 -24 -16 2 -15 0 6 -18 14 -11 21 -19 15 -18 -5 1 -20 -3 -32 -10
-24 -13 -23 -14 -27 31 -1 6 -5 15 -9 18 -5 3 -1 13 7 22 18 18 21 31 5 21
-12 -7 -8 65 16 316 3 30 8 80 11 110 2 30 9 87 14 125 6 39 19 158 30 265 40
394 69 687 75 760 3 41 13 129 21 195 8 66 23 212 34 325 10 113 33 324 49
470 35 300 36 309 56 515 9 83 18 166 20 185 2 19 23 199 45 400 22 201 42
370 45 377 2 7 15 9 37 4 18 -3 60 -6 93 -5z m6805 -50 c0 -3 -4 -8 -10 -11
-5 -3 -10 -1 -10 4 0 6 5 11 10 11 6 0 10 -2 10 -4z m-470 -129 c0 -8 -7 -14
-15 -14 -16 0 -19 9 -8 20 11 11 23 8 23 -6z m-17 -78 c5 -3 2 -9 -7 -12 -12
-5 -16 0 -16 15 0 12 3 17 8 12 4 -5 11 -12 15 -15z m-5873 7 c0 -2 -7 -6 -15
-10 -8 -3 -15 -1 -15 4 0 6 7 10 15 10 8 0 15 -2 15 -4z m5830 -16 c0 -5 -5
-10 -11 -10 -5 0 -7 5 -4 10 3 6 8 10 11 10 2 0 4 -4 4 -10z m-5833 -42 c-3
-8 -6 -5 -6 6 -1 11 2 17 5 13 3 -3 4 -12 1 -19z m5830 -40 c-3 -8 -6 -5 -6 6
-1 11 2 17 5 13 3 -3 4 -12 1 -19z m-5823 -16 c3 -5 -1 -9 -9 -9 -8 0 -12 4
-9 9 3 4 7 8 9 8 2 0 6 -4 9 -8z m1173 -50 c7 -5 9 -13 4 -21 -11 -18 -61 -6
-61 14 0 16 36 20 57 7z m5133 -92 c0 -5 -4 -10 -10 -10 -5 0 -10 5 -10 10 0
6 5 10 10 10 6 0 10 -4 10 -10z m-620 -44 c0 -3 -4 -8 -10 -11 -5 -3 -10 -1
-10 4 0 6 5 11 10 11 6 0 10 -2 10 -4z m-5639 -63 c1 -10 3 -32 5 -50 1 -17 7
-40 14 -50 10 -16 11 -16 6 0 -3 9 -2 17 3 17 8 0 25 -50 19 -55 -2 -1 -10 -6
-19 -11 -12 -6 -14 -15 -8 -29 7 -18 8 -18 8 -2 1 10 6 15 12 12 6 -4 8 -13 5
-21 -3 -8 -1 -14 4 -14 5 0 7 -9 5 -20 -2 -11 0 -20 5 -20 5 0 7 -7 4 -15 -4
-9 0 -15 10 -15 9 0 17 -8 18 -17 4 -40 6 -49 16 -75 6 -16 14 -54 18 -85 3
-32 8 -71 11 -88 3 -16 6 -42 7 -56 2 -14 6 -31 10 -37 4 -6 9 -31 11 -54 5
-40 9 -68 20 -143 3 -16 7 -43 10 -60 9 -57 16 -100 25 -150 5 -27 12 -75 15
-105 4 -30 20 -131 35 -225 16 -93 38 -231 50 -305 12 -74 34 -202 50 -285 16
-82 31 -166 34 -185 7 -46 33 -186 52 -280 54 -268 102 -532 102 -560 0 -8 9
-62 21 -119 12 -57 23 -120 26 -140 2 -20 9 -61 15 -91 6 -30 20 -109 31 -175
10 -66 22 -131 24 -145 5 -24 4 -25 -35 -22 -22 2 -40 8 -40 14 0 5 -5 6 -10
3 -11 -7 -91 3 -108 14 -6 4 -21 56 -32 116 -29 158 -59 313 -85 445 -13 63
-26 133 -29 155 -3 22 -21 114 -40 205 -19 91 -37 180 -40 199 -10 68 -28 179
-52 316 -13 77 -31 190 -39 250 -31 227 -48 335 -81 522 -19 105 -36 209 -39
230 -3 21 -12 70 -21 108 -8 39 -16 88 -19 110 -11 82 -17 131 -18 155 -1 14
-6 28 -11 31 -4 4 -11 28 -13 55 -3 27 -10 55 -16 62 -6 8 -6 17 2 26 9 11 9
15 -1 18 -14 5 -21 68 -7 68 5 0 9 12 9 26 0 20 -4 25 -16 20 -13 -5 -14 -4
-6 7 9 10 8 17 0 25 -9 9 -9 12 0 12 7 0 12 10 13 23 1 12 9 -12 19 -53 10
-41 16 -77 14 -79 -2 -2 1 -10 6 -16 10 -12 26 -75 35 -140 10 -67 39 -191 47
-205 6 -10 6 -2 2 20 -3 19 -8 52 -10 75 -4 45 -30 187 -42 225 -4 14 -8 39
-8 55 1 17 -2 32 -6 35 -4 3 -9 36 -10 73 -2 37 -6 67 -10 67 -5 0 -8 7 -8 15
0 8 7 15 16 15 8 0 13 4 9 10 -3 5 -13 6 -23 3 -9 -3 -14 -3 -10 2 4 4 2 17
-3 28 -9 15 -8 22 4 28 16 10 12 44 -6 56 -6 4 -8 0 -4 -10 3 -10 2 -17 -3
-17 -14 0 -12 34 3 49 10 12 8 13 -8 7 -11 -4 -16 -4 -12 0 4 4 2 14 -5 21 -9
11 -9 16 2 23 8 5 17 7 19 4 3 -3 -1 -9 -9 -14 -13 -8 -12 -10 3 -10 9 0 17 7
17 15 0 8 5 15 11 15 6 0 9 -9 6 -20 -3 -11 -1 -23 5 -26 5 -3 7 -12 4 -19 -2
-7 1 -18 7 -24 6 -6 8 -11 5 -11 -3 0 0 -28 8 -62 12 -50 12 -63 2 -70 -10 -5
-8 -8 5 -8 10 0 17 -6 16 -12 -1 -7 1 -26 5 -43 71 -303 89 -375 92 -372 5 5
-16 151 -26 182 -5 16 -12 48 -15 70 -2 22 -12 78 -21 125 -29 154 -35 185
-37 215 -2 17 -8 39 -14 50 -6 11 -14 40 -17 65 -3 25 -10 64 -14 87 -5 23 -7
45 -4 48 11 10 22 5 23 -12z m-51 -53 c0 -16 -5 -30 -10 -30 -6 0 -9 12 -6 28
5 33 5 32 11 32 3 0 5 -13 5 -30z m5564 11 c3 -5 0 -11 -7 -14 -8 -3 -14 1
-14 9 0 16 13 19 21 5z m-60 -43 c-9 -18 -23 -39 -31 -46 -12 -12 -12 -16 -1
-23 7 -5 8 -9 2 -9 -6 0 -13 3 -17 6 -8 9 41 104 53 104 6 0 3 -14 -6 -32z
m766 -38 c0 -5 -4 -10 -9 -10 -6 0 -13 5 -16 10 -3 6 1 10 9 10 9 0 16 -4 16
-10z m-6257 -21 c-6 -6 -17 -8 -24 -3 -9 5 -8 9 7 14 23 9 31 3 17 -11z m-65
-84 c-3 -3 -9 2 -12 12 -6 14 -5 15 5 6 7 -7 10 -15 7 -18z m5442 -8 c13 4 13
3 0 -6 -9 -6 -19 -6 -26 -1 -6 6 -14 7 -17 3 -4 -3 -7 -2 -7 4 0 18 14 24 25
10 5 -7 17 -12 25 -10z m-5426 -59 c5 -25 3 -38 -4 -38 -6 0 -8 5 -4 11 3 6 2
14 -4 18 -6 4 -9 17 -5 29 7 28 9 26 17 -20z m5256 -43 c0 -9 -6 -12 -15 -9
-8 4 -12 10 -9 15 8 14 24 10 24 -6z m-5245 -15 c3 -5 2 -10 -4 -10 -5 0 -13
5 -16 10 -3 6 -2 10 4 10 5 0 13 -4 16 -10z m6196 -13 c-10 -9 -11 -8 -5 6 3
10 9 15 12 12 3 -3 0 -11 -7 -18z m-6451 -17 c0 -5 9 -10 20 -10 11 0 20 -6
20 -13 0 -7 7 -23 16 -35 12 -17 19 -20 29 -12 10 9 16 3 25 -25 6 -19 19 -41
28 -47 9 -7 24 -26 33 -43 21 -39 52 -135 46 -141 -19 -20 -229 259 -232 307
-1 16 2 29 7 29 4 0 8 -4 8 -10z m274 -35 c3 -8 1 -15 -4 -15 -6 0 -10 -6 -10
-14 0 -8 -5 -18 -12 -22 -7 -5 -9 -2 -6 8 4 8 2 21 -2 29 -6 8 -4 16 3 21 18
11 24 10 31 -7z m1416 5 c0 -5 -7 -7 -15 -4 -8 4 -15 8 -15 10 0 2 7 4 15 4 8
0 15 -4 15 -10z m60 -32 c0 -6 -6 -5 -15 2 -8 7 -15 14 -15 16 0 2 7 1 15 -2
8 -4 15 -11 15 -16z m3620 11 c0 -5 -4 -7 -10 -4 -5 3 -10 1 -10 -6 0 -7 -3
-10 -6 -6 -8 7 4 27 17 27 5 0 9 -5 9 -11z m50 -14 c0 -8 -4 -15 -10 -15 -5 0
-7 7 -4 15 4 8 8 15 10 15 2 0 4 -7 4 -15z m-3616 -24 c-2 -3 -12 3 -22 13
-16 17 -16 18 5 5 12 -7 20 -15 17 -18z m-330 -6 c-4 -8 -8 -15 -10 -15 -2 0
-4 7 -4 15 0 8 4 15 10 15 5 0 7 -7 4 -15z m-29 -5 c-3 -5 -12 -10 -18 -10 -7
0 -6 4 3 10 19 12 23 12 15 0z m420 1 c3 -5 1 -12 -5 -16 -5 -3 -10 -1 -10 5
0 6 -4 8 -10 5 -5 -3 -10 -1 -10 4 0 13 27 14 35 2z m-541 -33 c6 -5 2 -8 -11
-8 -15 0 -20 5 -18 18 5 27 6 28 12 12 3 -8 11 -18 17 -22z m596 13 c0 -5 -9
-7 -20 -4 -11 3 -20 7 -20 9 0 2 9 4 20 4 11 0 20 -4 20 -9z m-394 -11 c9 0
13 -4 10 -9 -9 -14 -53 -10 -53 6 0 8 6 12 14 8 8 -3 21 -5 29 -5z m-1499 -87
c32 -43 96 -116 143 -163 99 -99 96 -92 146 -390 29 -176 29 -217 -6 -555 -36
-351 -43 -411 -51 -420 -10 -10 -395 -84 -443 -85 -25 0 -27 3 -22 24 8 33 35
300 51 511 6 80 31 322 45 440 27 223 70 659 70 705 0 19 9 9 67 -67z m243 47
c0 -5 -2 -10 -4 -10 -3 0 -8 5 -11 10 -3 6 -1 10 4 10 6 0 11 -4 11 -10z m884
-5 c3 -8 1 -15 -4 -15 -6 0 -10 7 -10 15 0 8 2 15 4 15 2 0 6 -7 10 -15z m450
-1 c8 -21 8 -21 -7 -21 -7 0 -13 9 -13 19 0 22 12 24 20 2z m466 10 c0 -8 -19
-13 -24 -6 -3 5 1 9 9 9 8 0 15 -2 15 -3z m60 -10 c0 -2 -11 -3 -24 -2 -14 1
-23 5 -20 9 4 7 44 0 44 -7z m-1023 -1 c-4 -3 -2 -12 4 -20 7 -8 8 -13 1 -13
-12 0 -23 26 -15 34 4 3 9 6 11 6 3 0 2 -3 -1 -7z m5246 -10 c-3 -7 -8 -13
-12 -13 -4 0 -8 6 -8 13 0 8 6 14 13 14 7 0 10 -6 7 -14z m-4106 -7 c9 -9 -48
-5 -77 4 -19 7 -13 8 23 5 27 -2 51 -6 54 -9z m-757 -6 c0 -5 -5 -10 -11 -10
-5 0 -7 5 -4 10 3 6 8 10 11 10 2 0 4 -4 4 -10z m435 -2 c22 -10 25 -16 20
-47 -29 -178 -73 -333 -130 -457 -67 -147 -194 -303 -293 -361 -42 -25 -46
-25 -99 -13 -63 16 -203 94 -203 114 0 12 18 28 71 61 63 39 178 134 244 200
112 114 247 302 310 432 22 45 43 82 47 83 4 0 19 -5 33 -12z m498 -5 c-7 -2
-21 -2 -30 0 -10 3 -4 5 12 5 17 0 24 -2 18 -5z m-898 -12 c3 -5 1 -12 -5 -16
-5 -3 -10 1 -10 9 0 18 6 21 15 7z m505 -66 c15 -40 12 -98 -11 -191 -64 -259
-198 -471 -360 -566 -83 -49 -104 -48 -41 1 53 42 122 121 122 140 0 6 3 11 8
11 17 0 120 206 154 310 14 41 33 109 42 150 37 164 49 198 63 184 7 -7 17
-24 23 -39z m-469 36 c-7 -5 -11 -13 -7 -19 6 -10 -11 -29 -18 -21 -8 9 14 49
26 49 10 0 10 -2 -1 -9z m3589 5 c0 -3 -4 -8 -10 -11 -5 -3 -10 -1 -10 4 0 6
5 11 10 11 6 0 10 -2 10 -4z m-4220 -22 c0 -10 -6 -14 -15 -10 -8 3 -15 0 -15
-6 0 -6 -3 -8 -7 -4 -5 4 1 14 11 22 25 18 26 18 26 -2z m-235 -4 c3 -5 1 -10
-4 -10 -6 0 -11 5 -11 10 0 6 2 10 4 10 3 0 8 -4 11 -10z m1432 -13 c11 4 14
2 9 -5 -5 -8 -2 -10 8 -6 11 4 16 0 16 -10 0 -10 9 -16 25 -16 17 0 23 -4 19
-15 -8 -19 20 -47 40 -39 10 4 14 0 13 -15 -1 -16 -4 -18 -17 -8 -10 8 -9 5 3
-9 9 -11 17 -25 17 -30 0 -5 13 -22 29 -37 l30 -28 -9 33 c-7 22 -6 28 1 21 6
-6 11 -26 12 -46 1 -19 4 -33 6 -31 2 2 10 -4 18 -14 9 -10 11 -11 7 -2 -7 13
-6 13 10 1 9 -8 24 -28 33 -44 9 -18 18 -26 22 -19 4 7 11 5 19 -8 10 -17 9
-18 -6 -13 -15 6 -15 4 -4 -10 8 -9 20 -13 30 -10 15 6 15 4 4 -9 -11 -14 -10
-16 7 -11 12 3 21 1 21 -6 0 -7 10 -22 23 -34 12 -12 27 -31 33 -42 10 -19 89
-72 108 -74 5 -1 2 7 -5 17 -13 15 -12 16 4 3 10 -8 16 -20 13 -28 -3 -7 1
-13 9 -13 8 0 15 -4 15 -10 0 -5 -5 -10 -12 -10 -6 0 -1 -9 12 -20 13 -11 28
-20 33 -20 6 0 28 -18 49 -40 22 -22 44 -40 49 -40 5 0 9 -3 9 -7 0 -5 12 -16
25 -26 20 -14 29 -16 46 -6 13 6 19 7 15 1 -8 -13 20 -42 41 -42 9 0 21 -7 28
-16 10 -14 16 -14 36 -5 l24 12 -25 -22 c-14 -12 -18 -20 -9 -16 9 3 34 -5 55
-19 22 -13 47 -24 57 -24 10 0 16 -4 13 -9 -3 -5 0 -11 8 -14 8 -3 17 1 20 9
6 16 26 19 26 3 0 -5 -4 -7 -10 -4 -5 3 -10 2 -10 -3 0 -10 29 -26 43 -24 12
3 8 -16 -5 -21 -7 -3 -4 -5 7 -5 11 1 29 -3 39 -7 13 -6 17 -5 13 2 -5 8 1 7
17 0 14 -7 24 -14 24 -17 -2 -21 4 -29 17 -24 8 4 13 9 10 14 -2 4 7 5 20 2
14 -2 28 -9 31 -14 3 -5 -5 -6 -20 -2 -17 4 -26 2 -26 -6 0 -6 6 -10 13 -7 6
2 20 -2 30 -11 15 -14 17 -13 17 3 0 18 1 18 16 -1 15 -18 15 -18 10 6 -5 23
-4 24 9 7 7 -11 11 -25 8 -33 -4 -12 0 -14 21 -8 20 5 26 3 26 -11 0 -9 5 -13
10 -10 6 4 8 10 5 15 -3 5 0 12 6 16 8 4 9 3 5 -4 -4 -7 -1 -12 8 -12 9 0 16
-5 16 -11 0 -7 9 -9 24 -5 27 7 105 -17 89 -27 -7 -4 -14 -3 -18 3 -4 6 -11 8
-16 5 -13 -9 -11 -21 4 -23 47 -6 75 -16 73 -26 -2 -6 -1 -8 1 -3 9 14 35 7
29 -8 -4 -11 3 -17 24 -22 17 -3 30 -9 30 -14 0 -5 6 -7 13 -4 6 2 22 -9 34
-25 28 -34 34 -74 13 -75 -26 -1 -182 34 -270 61 -129 39 -409 151 -460 184
-8 5 -40 23 -70 40 -67 36 -177 107 -217 137 -147 115 -156 123 -277 241 -49
48 -104 107 -123 132 -19 25 -49 61 -66 80 -18 20 -48 58 -66 85 -19 28 -38
52 -41 55 -4 3 -18 25 -32 50 -14 25 -46 82 -72 126 -25 45 -45 88 -45 95 1 8
3 7 6 -3 3 -11 10 -15 20 -11z m-1162 4 c3 -5 1 -12 -4 -15 -5 -3 -11 1 -15 9
-6 16 9 21 19 6z m4165 -1 c0 -5 -4 -10 -10 -10 -5 0 -10 5 -10 10 0 6 5 10
10 10 6 0 10 -4 10 -10z m-4200 -24 c0 -3 -4 -8 -10 -11 -5 -3 -10 -1 -10 4 0
6 5 11 10 11 6 0 10 -2 10 -4z m585 -17 c-4 -5 -12 -9 -18 -8 -9 0 -8 2 1 6 6
2 9 10 6 15 -4 7 -2 8 5 4 6 -4 9 -12 6 -17z m45 17 c0 -3 -4 -8 -10 -11 -5
-3 -10 -1 -10 4 0 6 5 11 10 11 6 0 10 -2 10 -4z m3443 -2 c6 -7 -14 -44 -24
-44 -3 0 -6 7 -6 15 0 8 4 15 9 15 5 0 6 5 3 10 -7 11 8 14 18 4z m-3996 -36
c-3 -7 -5 -2 -5 12 0 14 2 19 5 13 2 -7 2 -19 0 -25z m-194 -17 c4 -20 13 -31
29 -34 l23 -4 -23 -2 c-15 -1 -28 9 -42 31 -10 17 -17 35 -14 40 9 14 21 0 27
-31z m90 19 c5 -4 3 -11 -5 -15 -7 -5 -10 -4 -5 0 4 5 -5 15 -20 22 -26 12
-26 12 -3 7 14 -4 29 -10 33 -14z m-53 -11 c0 -14 -17 -10 -23 5 -4 10 -1 13
9 9 7 -3 14 -9 14 -14z m-150 -9 c5 8 12 7 24 -5 9 -10 14 -20 10 -24 -4 -3
-9 0 -11 7 -3 6 -9 12 -14 12 -6 0 -7 -4 -4 -10 3 -5 1 -10 -4 -10 -6 0 -11 5
-11 11 0 6 -7 9 -15 5 -9 -3 -15 0 -15 8 0 22 13 28 23 10 7 -12 11 -13 17 -4z
m4220 -6 c0 -2 -7 -4 -15 -4 -8 0 -15 4 -15 10 0 5 7 7 15 4 8 -4 15 -8 15
-10z m-2827 -62 c1 -18 4 -32 7 -32 3 0 14 -18 24 -40 19 -39 19 -42 2 -98
-23 -76 -68 -196 -75 -202 -3 -3 -12 -17 -20 -32 -8 -15 -19 -24 -27 -21 -9 3
-12 -2 -9 -16 3 -14 -7 -33 -25 -54 l-30 -32 17 43 c9 23 19 42 24 42 4 0 6 8
5 18 -2 9 5 24 15 33 11 10 15 20 9 29 -10 16 -1 42 12 34 5 -3 8 0 7 7 -2 8
1 24 5 37 17 50 -3 30 -24 -25 -13 -32 -36 -77 -52 -101 -15 -24 -28 -47 -28
-53 0 -5 -42 -51 -92 -102 -127 -128 -177 -152 -313 -151 -111 0 -155 5 -148
17 2 4 -3 7 -12 7 -22 0 -78 26 -141 67 -29 17 -55 29 -58 25 -4 -3 -4 1 0 11
4 13 1 17 -14 17 -12 0 -23 9 -27 20 -3 11 -11 20 -16 20 -5 0 -9 4 -9 10 0 5
35 -16 78 -48 42 -31 106 -71 142 -87 59 -27 74 -30 170 -30 98 1 109 3 166
32 114 59 238 201 304 348 32 72 95 260 105 318 9 44 24 37 28 -11z m-1376 -4
c-3 -8 -6 -5 -6 6 -1 11 2 17 5 13 3 -3 4 -12 1 -19z m733 7 c-7 -8 -17 -15
-22 -15 -6 0 -5 7 2 15 7 8 17 15 22 15 6 0 5 -7 -2 -15z m-690 -45 c0 -11 -4
-20 -10 -20 -5 0 -10 9 -10 20 0 11 5 20 10 20 6 0 10 -9 10 -20z m3976 -6
c-4 -9 -9 -15 -11 -12 -3 3 -3 13 1 22 4 9 9 15 11 12 3 -3 3 -13 -1 -22z
m-3328 4 c-2 -6 -10 -14 -16 -16 -7 -2 -10 2 -6 12 7 18 28 22 22 4z m3182
-18 c0 -5 -7 -10 -15 -10 -8 0 -15 5 -15 10 0 6 7 10 15 10 8 0 15 -4 15 -10z
m65 0 c3 -5 -1 -10 -9 -10 -9 0 -16 5 -16 10 0 6 4 10 9 10 6 0 13 -4 16 -10z
m-2270 -30 c3 -5 1 -10 -4 -10 -6 0 -11 5 -11 10 0 6 2 10 4 10 3 0 8 -4 11
-10z m-1605 -30 c0 -5 -4 -10 -10 -10 -5 0 -10 5 -10 10 0 6 5 10 10 10 6 0
10 -4 10 -10z m3790 6 c0 -3 -4 -8 -10 -11 -5 -3 -10 -1 -10 4 0 6 5 11 10 11
6 0 10 -2 10 -4z m-3730 -28 c0 -6 7 -20 17 -30 9 -10 12 -18 7 -18 -5 0 -16
8 -24 18 -18 21 -26 57 -11 47 6 -3 11 -11 11 -17z m2230 2 c0 -5 -2 -10 -4
-10 -3 0 -8 5 -11 10 -3 6 -1 10 4 10 6 0 11 -4 11 -10z m-2093 -62 c-3 -7 -5
-2 -5 12 0 14 2 19 5 13 2 -7 2 -19 0 -25z m-17 -8 c0 -5 -2 -10 -4 -10 -3 0
-8 5 -11 10 -3 6 -1 10 4 10 6 0 11 -4 11 -10z m-86 -32 c-8 -13 -33 3 -27 17
4 11 8 12 18 2 7 -7 11 -15 9 -19z m230 -17 c-3 -3 -15 6 -27 18 l-22 24 27
-19 c14 -10 24 -21 22 -23z m2933 15 c-4 -10 -13 -13 -23 -9 -15 6 -15 7 1 20
21 15 30 10 22 -11z m-3017 -32 c-7 -7 -18 -14 -24 -14 -6 0 -3 7 7 14 11 8
15 21 11 32 -5 18 -5 18 6 1 9 -14 9 -22 0 -33z m2097 20 c3 -8 0 -21 -7 -27
-10 -10 -11 -7 -5 12 5 16 4 21 -4 17 -6 -4 -11 -2 -11 3 0 17 20 13 27 -5z
m810 -20 c-3 -3 -12 -4 -19 -1 -8 3 -5 6 6 6 11 1 17 -2 13 -5z m-427 -24 c0
-5 -5 -10 -11 -10 -5 0 -7 5 -4 10 3 6 8 10 11 10 2 0 4 -4 4 -10z m-922 -36
c-4 -3 -12 5 -18 18 -12 22 -12 22 6 6 10 -10 15 -20 12 -24z m557 26 c3 -5 1
-10 -4 -10 -6 0 -11 5 -11 10 0 6 2 10 4 10 3 0 8 -4 11 -10z m511 -17 c-7 -7
-26 7 -26 19 0 6 6 6 15 -2 9 -7 13 -15 11 -17z m-276 1 c0 -2 -9 -4 -21 -4
-11 0 -18 4 -14 10 5 8 35 3 35 -6z m-2410 -15 c0 -6 -4 -7 -10 -4 -5 3 -10
11 -10 16 0 6 5 7 10 4 6 -3 10 -11 10 -16z m2225 11 c3 -5 1 -10 -4 -10 -6 0
-11 5 -11 10 0 6 2 10 4 10 3 0 8 -4 11 -10z m80 -10 c-3 -5 -13 -6 -21 -3
-12 4 -13 8 -3 14 15 9 32 2 24 -11z m192 12 c8 -5 -2 -8 -25 -9 -28 0 -32 1
-17 7 26 11 28 11 42 2z m43 -6 c0 -3 -4 -8 -10 -11 -5 -3 -10 -1 -10 4 0 6 5
11 10 11 6 0 10 -2 10 -4z m-875 -16 c3 -5 1 -10 -4 -10 -6 0 -11 5 -11 10 0
6 2 10 4 10 3 0 8 -4 11 -10z m695 -4 c0 -3 -4 -8 -10 -11 -5 -3 -10 -1 -10 4
0 6 5 11 10 11 6 0 10 -2 10 -4z m-2330 -23 c0 -6 -9 -9 -20 -6 -30 8 -33 21
-5 19 14 0 25 -6 25 -13z m35 -43 c3 -5 -3 -10 -15 -10 -12 0 -18 5 -15 10 3
6 10 10 15 10 5 0 12 -4 15 -10z m1694 -19 c8 -5 9 -11 3 -15 -5 -3 -15 1 -22
9 -14 16 -3 20 19 6z m-1668 -18 c12 -12 4 -33 -12 -33 -6 0 -7 5 -4 11 4 6
-1 16 -11 24 -18 13 -18 14 -1 11 9 -1 22 -7 28 -13z m39 -43 c0 -5 -2 -10 -4
-10 -3 0 -8 5 -11 10 -3 6 -1 10 4 10 6 0 11 -4 11 -10z m1720 -10 c0 -5 -2
-10 -4 -10 -3 0 -8 5 -11 10 -3 6 -1 10 4 10 6 0 11 -4 11 -10z m2836 -45
c-11 -8 -27 -15 -35 -15 -10 0 -7 6 9 14 33 19 50 19 26 1z m-2756 -14 c0 -17
-18 -21 -24 -6 -3 9 0 15 9 15 8 0 15 -4 15 -9z m120 -62 c0 -6 -4 -7 -10 -4
-5 3 -10 11 -10 16 0 6 5 7 10 4 6 -3 10 -11 10 -16z m-1225 -39 c-3 -5 -11
-10 -16 -10 -6 0 -7 5 -4 10 3 6 11 10 16 10 6 0 7 -4 4 -10z m1280 0 c3 -5 2
-10 -4 -10 -5 0 -13 5 -16 10 -3 6 -2 10 4 10 5 0 13 -4 16 -10z m-1692 -67
c-13 -2 -33 -2 -45 0 -13 2 -3 4 22 4 25 0 35 -2 23 -4z m-501 -49 c184 -116
377 -159 572 -128 45 8 86 14 93 14 13 0 23 -30 48 -150 9 -41 20 -91 26 -110
5 -19 11 -53 12 -74 l2 -40 -70 -14 c-38 -7 -182 -38 -318 -68 -282 -62 -307
-64 -307 -32 0 20 -48 284 -91 502 -20 102 -23 126 -14 126 3 0 24 -12 47 -26z
m4308 6 c0 -5 -2 -10 -4 -10 -3 0 -8 5 -11 10 -3 6 -1 10 4 10 6 0 11 -4 11
-10z m-4033 -26 c-3 -3 -12 -4 -19 -1 -8 3 -5 6 6 6 11 1 17 -2 13 -5z m300 0
c-3 -3 -12 -4 -19 -1 -8 3 -5 6 6 6 11 1 17 -2 13 -5z m3553 -82 c0 -4 -10 -9
-22 -9 -18 -2 -20 0 -8 7 18 12 30 13 30 2z m-280 -72 c0 -5 -7 -7 -15 -4 -8
4 -15 8 -15 10 0 2 7 4 15 4 8 0 15 -4 15 -10z m-960 -24 c0 -3 -4 -8 -10 -11
-5 -3 -10 -1 -10 4 0 6 5 11 10 11 6 0 10 -2 10 -4z m750 -31 c0 -8 -8 -15
-17 -14 -11 0 -13 3 -5 6 6 2 10 9 6 14 -3 5 0 9 5 9 6 0 11 -7 11 -15z m195
-370 c15 -83 44 -256 67 -385 57 -333 84 -545 69 -554 -4 -3 -27 -8 -51 -12
-40 -7 -43 -5 -37 12 6 17 6 17 -6 3 -8 -12 -29 -17 -62 -18 -28 0 -65 -3 -82
-6 -40 -6 -135 -54 -128 -65 7 -12 -33 -43 -46 -35 -7 5 -10 3 -7 -6 6 -19
-32 -38 -54 -27 -14 6 -16 5 -12 -7 4 -8 1 -15 -5 -15 -7 0 -14 7 -17 15 -4 8
-11 15 -16 15 -6 0 -8 -7 -5 -15 4 -8 2 -17 -3 -20 -6 -4 -11 11 -11 32 -1 21
-3 47 -5 58 -2 11 -5 36 -7 55 -3 19 -8 58 -11 85 -4 28 -9 64 -12 82 -4 31
-79 763 -91 888 l-5 60 163 1 c156 0 319 10 328 20 13 12 23 -25 46 -161z
m-588 88 c-3 -10 -5 -4 -5 12 0 17 2 24 5 18 2 -7 2 -21 0 -30z m-150 -56 c-2
-7 2 -18 9 -25 12 -11 14 -9 15 10 0 14 3 17 6 8 12 -37 27 -60 40 -60 8 0 13
-6 11 -12 -3 -16 22 -78 32 -78 4 0 11 -17 16 -37 4 -21 8 -40 9 -43 1 -3 7
-25 14 -50 7 -25 18 -51 24 -59 10 -12 9 -13 -3 -6 -12 7 -12 5 1 -11 10 -11
17 -41 18 -72 1 -30 6 -65 12 -79 9 -25 26 -158 35 -283 2 -36 7 -83 10 -105
11 -82 11 -120 0 -134 -8 -11 -8 -13 2 -7 11 7 18 -13 12 -39 -3 -14 -2 -46 3
-70 3 -11 0 -28 -5 -37 -6 -12 -5 -18 2 -18 6 0 9 -8 7 -17 -15 -55 -17 -74
-7 -68 5 3 10 2 10 -4 0 -5 -5 -13 -11 -17 -6 -3 -8 -17 -4 -32 6 -23 4 -24
-10 -12 -9 7 -15 9 -14 4 6 -32 -3 -54 -20 -54 -11 0 -23 -5 -26 -10 -5 -8
-11 -8 -20 0 -10 8 -15 8 -20 0 -4 -6 -28 -10 -54 -9 -26 1 -53 -1 -60 -6 -8
-4 -16 -2 -21 5 -5 8 -13 9 -26 2 -15 -7 -161 -14 -314 -14 -37 0 -137 27
-155 42 -25 21 -14 60 25 91 45 36 118 55 267 69 156 14 206 26 234 57 22 23
24 33 23 126 -1 106 -24 338 -74 758 -33 268 -35 303 -20 294 6 -3 10 -1 10 4
0 6 -4 11 -10 11 -5 0 -10 5 -10 10 0 7 7 7 21 0 11 -7 19 -17 16 -23z m162
-24 l-1 -48 -8 40 c-7 37 -5 55 6 55 2 0 3 -21 3 -47z m-2565 27 c-10 -10
-166 -52 -437 -115 -112 -27 -161 -35 -169 -27 -15 15 -2 42 21 42 11 0 100
18 198 40 299 66 411 84 387 60z m2486 -44 c0 -3 -4 -8 -10 -11 -5 -3 -10 -1
-10 4 0 6 5 11 10 11 6 0 10 -2 10 -4z m-3954 -70 c16 -2 112 -10 213 -17 182
-13 219 -22 208 -53 -5 -13 -39 -12 -332 14 -121 10 -286 24 -367 31 -82 6
-148 13 -148 15 0 2 15 8 33 14 28 8 306 6 393 -4z m-193 -51 c251 -15 581
-43 608 -51 9 -2 16 -10 16 -18 0 -7 6 -48 13 -90 7 -42 10 -79 7 -83 -4 -3
-82 2 -174 12 -93 9 -208 21 -258 26 -97 9 -158 15 -245 25 -30 3 -71 7 -90 9
-19 2 -61 7 -94 11 l-58 7 6 71 c3 39 6 77 6 84 0 15 -26 15 263 -3z m118
-245 c108 -11 199 -20 204 -20 10 0 1 -152 -31 -475 -21 -217 -21 -220 -6
-237 8 -10 21 -18 28 -18 17 0 37 -37 25 -44 -5 -3 -12 4 -16 17 -4 13 -8 17
-12 10 -2 -7 -13 -13 -23 -13 -10 0 -22 -5 -26 -12 -5 -8 -2 -9 9 -5 10 4 17
2 17 -4 0 -7 -13 -9 -30 -7 -22 3 -29 1 -26 -8 3 -9 -7 -16 -32 -20 -20 -4
-40 -12 -44 -18 -8 -12 -48 -18 -48 -7 0 4 -10 8 -22 8 -16 2 -19 0 -9 -6 7
-5 11 -13 7 -19 -3 -5 1 -12 8 -15 8 -3 17 -1 19 6 2 7 7 9 11 6 3 -3 0 -14
-7 -23 -13 -17 -14 -17 -30 -1 -10 9 -15 20 -12 24 4 7 -36 6 -90 -3 -31 -5
-31 -6 -15 -16 9 -6 10 -10 3 -10 -6 0 -15 5 -18 10 -4 6 -11 8 -16 5 -5 -4
-37 -8 -71 -10 -34 -2 -66 -9 -72 -15 -5 -5 -16 -10 -24 -10 -12 0 -14 13 -8
73 28 306 39 412 56 552 10 88 21 183 24 210 3 28 8 67 12 87 6 34 8 36 38 32
17 -2 119 -13 227 -24z m4972 -102 c9 -60 46 -272 56 -323 24 -116 42 -237 37
-243 -3 -3 -9 9 -12 26 -4 18 -11 32 -16 32 -5 0 -6 5 -3 10 3 6 2 10 -3 10
-5 0 -9 7 -9 15 0 8 4 12 9 9 10 -6 11 10 1 20 -4 3 -8 14 -9 24 -2 23 -14 83
-19 102 -5 17 -15 71 -20 110 -2 14 -8 44 -13 68 -7 28 -6 44 0 48 7 4 7 9 0
13 -5 3 -12 32 -16 64 -6 60 8 72 17 15z m-4347 -356 c38 -221 38 -215 -22
-218 l-36 -2 5 72 c4 39 9 115 13 170 8 115 18 110 40 -22z m4239 -162 c-19
-7 -19 -7 0 -19 13 -8 14 -11 4 -8 -9 3 -22 0 -28 -6 -8 -8 -14 -8 -23 2 -11
10 -10 11 5 6 10 -4 17 -2 17 4 0 6 -4 11 -10 11 -5 0 -10 4 -10 9 0 12 30 19
49 12 11 -3 10 -6 -4 -11z m-2918 3 c-4 -3 -2 -12 4 -20 7 -8 8 -13 1 -13 -12
0 -23 26 -15 34 4 3 9 6 11 6 3 0 2 -3 -1 -7z m2793 -13 c0 -5 -19 -9 -42 -9
-40 1 -41 2 -13 9 44 11 55 11 55 0z m64 -5 c-5 -13 -9 -13 -23 -3 -9 7 -18
14 -20 15 -2 2 8 3 22 3 20 0 25 -4 21 -15z m-161 -4 c-4 -3 -10 -9 -13 -12
-3 -4 -10 -1 -17 6 -9 10 -6 13 13 13 14 0 21 -3 17 -7z m-2633 -22 c0 -5 -4
-9 -10 -9 -5 0 -10 7 -10 16 0 8 5 12 10 9 6 -3 10 -10 10 -16z m2743 4 c-7
-2 -19 -2 -25 0 -7 3 -2 5 12 5 14 0 19 -2 13 -5z m-2898 -93 c3 -5 1 -10 -4
-10 -6 0 -11 5 -11 10 0 6 2 10 4 10 3 0 8 -4 11 -10z m-300 -10 c-3 -5 -11
-10 -16 -10 -6 0 -7 5 -4 10 3 6 11 10 16 10 6 0 7 -4 4 -10z m3855 0 c0 -5
-2 -10 -4 -10 -3 0 -8 5 -11 10 -3 6 -1 10 4 10 6 0 11 -4 11 -10z m-10 -24
c0 -2 -7 -9 -15 -16 -13 -11 -14 -10 -9 4 5 14 24 23 24 12z m200 -26 c0 -5
-4 -10 -10 -10 -5 0 -10 5 -10 10 0 6 5 10 10 10 6 0 10 -4 10 -10z m-1246
-15 c3 -8 1 -15 -4 -15 -6 0 -10 7 -10 15 0 8 2 15 4 15 2 0 6 -7 10 -15z
m-24 1 c0 -3 -4 -8 -10 -11 -5 -3 -10 -1 -10 4 0 6 5 11 10 11 6 0 10 -2 10
-4z m1080 -6 c-8 -5 -19 -10 -25 -10 -5 0 -3 5 5 10 8 5 20 10 25 10 6 0 3 -5
-5 -10z m105 -10 c3 -5 2 -10 -4 -10 -5 0 -13 5 -16 10 -3 6 -2 10 4 10 5 0
13 -4 16 -10z m-5405 -20 c0 -5 -2 -10 -4 -10 -3 0 -8 5 -11 10 -3 6 -1 10 4
10 6 0 11 -4 11 -10z m1307 4 c-3 -3 -12 -4 -19 -1 -8 3 -5 6 6 6 11 1 17 -2
13 -5z m2976 -22 c-8 -20 -35 -42 -45 -36 -4 2 -9 0 -12 -5 -4 -5 -2 -12 3
-15 5 -4 12 -2 16 4 3 5 14 10 23 10 13 0 14 -2 4 -9 -11 -6 -10 -10 4 -15 9
-3 14 -9 10 -13 -3 -3 1 -14 9 -23 13 -14 12 -16 -4 -16 -10 0 -18 7 -17 15 1
8 -11 21 -25 28 -15 7 -33 21 -40 30 -8 9 -9 14 -3 10 6 -3 16 5 22 18 7 14
18 25 27 25 8 0 15 5 15 11 0 5 4 8 10 4 5 -3 6 -13 3 -23z m954 -4 c-3 -8 -6
-5 -6 6 -1 11 2 17 5 13 3 -3 4 -12 1 -19z m-1020 -3 c0 -8 -4 -15 -9 -15 -10
0 -11 14 -1 23 9 10 10 9 10 -8z m1313 5 c0 -5 -4 -10 -10 -10 -5 0 -10 -5
-10 -11 0 -6 7 -9 15 -6 8 4 17 2 20 -3 4 -6 -1 -10 -10 -10 -9 0 -13 -4 -10
-10 3 -5 1 -10 -5 -10 -6 0 -15 10 -20 23 -5 12 -9 17 -9 10 -1 -6 -10 -14
-20 -18 -12 -4 -18 -12 -14 -21 4 -10 0 -12 -13 -7 -14 5 -16 3 -10 -13 6 -16
5 -17 -6 -6 -11 11 -8 18 15 37 15 13 27 31 27 39 0 13 9 17 53 25 4 0 7 -3 7
-9z m-1206 -21 c-2 -4 3 -10 12 -13 17 -6 10 -26 -9 -26 -7 0 -6 4 3 10 13 8
13 10 -1 10 -9 0 -21 6 -27 13 -8 10 -6 13 8 13 10 0 17 -3 14 -7z m954 -5 c6
3 13 -3 17 -14 4 -11 11 -18 16 -15 5 4 9 1 9 -4 0 -15 -16 -14 -32 2 -7 8
-18 12 -23 10 -6 -2 -11 7 -12 19 -2 16 0 19 6 9 5 -7 13 -11 19 -7z m-4688
-20 c0 -2 -11 -4 -25 -4 -14 0 -25 4 -25 9 0 4 11 6 25 3 14 -2 25 -6 25 -8z
m3905 7 c3 -5 1 -12 -5 -16 -5 -3 -10 1 -10 9 0 18 6 21 15 7z m945 -1 c0 -5
-9 -10 -21 -10 -11 0 -17 5 -14 10 3 6 13 10 21 10 8 0 14 -4 14 -10z m-5600
-10 c0 -5 -5 -10 -11 -10 -5 0 -7 5 -4 10 3 6 8 10 11 10 2 0 4 -4 4 -10z
m1370 -11 c0 -6 -4 -7 -10 -4 -5 3 -10 11 -10 16 0 6 5 7 10 4 6 -3 10 -11 10
-16z m3226 -11 c4 -7 3 -8 -4 -4 -12 7 -17 -23 -13 -66 1 -10 -2 -18 -7 -18
-5 0 -8 16 -6 36 1 20 -2 47 -7 61 -8 21 -7 23 11 13 10 -5 22 -15 26 -22z
m1154 15 c19 -17 29 -40 12 -29 -4 2 -9 -7 -10 -22 -4 -43 -42 -53 -42 -11 0
11 -7 22 -15 25 -12 5 -11 10 7 30 28 28 23 28 48 7z m-1393 -15 c-3 -8 -6 -5
-6 6 -1 11 2 17 5 13 3 -3 4 -12 1 -19z m988 12 c-3 -5 -11 -10 -16 -10 -6 0
-7 5 -4 10 3 6 11 10 16 10 6 0 7 -4 4 -10z m183 -16 c0 -14 -3 -22 -7 -17 -3
6 -13 13 -21 16 -12 4 -11 6 3 6 10 1 15 6 12 11 -3 6 -2 10 3 10 5 0 10 -12
10 -26z m136 10 c10 -25 -1 -29 -14 -5 -6 12 -7 21 -1 21 5 0 12 -7 15 -16z
m-924 -4 c0 -5 8 -11 18 -11 16 -1 16 -2 0 -6 -10 -2 -18 -9 -18 -14 0 -5 -5
-9 -11 -9 -8 0 -8 5 1 15 9 10 9 15 1 15 -6 0 -11 5 -11 10 0 6 5 10 10 10 6
0 10 -4 10 -10z m105 0 c-3 -5 -12 -10 -18 -10 -7 0 -6 4 3 10 19 12 23 12 15
0z m275 6 c0 -2 -7 -7 -16 -10 -8 -3 -12 -2 -9 4 6 10 25 14 25 6z m300 0 c0
-3 -4 -8 -10 -11 -5 -3 -10 -1 -10 4 0 6 5 11 10 11 6 0 10 -2 10 -4z m140 -6
c0 -5 -4 -10 -10 -10 -5 0 -10 5 -10 10 0 6 5 10 10 10 6 0 10 -4 10 -10z
m-4215 -10 c3 -5 2 -10 -4 -10 -5 0 -13 5 -16 10 -3 6 -2 10 4 10 5 0 13 -4
16 -10z m3060 -18 c3 -8 3 -17 0 -20 -3 -3 -5 0 -5 6 0 7 -7 12 -15 12 -8 0
-15 4 -15 8 0 15 29 9 35 -6z m305 14 c0 -3 -4 -8 -10 -11 -5 -3 -10 -1 -10 4
0 6 5 11 10 11 6 0 10 -2 10 -4z m341 -14 c-7 -2 -18 1 -23 6 -8 8 -4 9 13 5
13 -4 18 -8 10 -11z m129 2 c0 -8 -19 -13 -24 -6 -3 5 1 9 9 9 8 0 15 -2 15
-3z m150 -4 c0 -5 -2 -10 -4 -10 -3 0 -8 5 -11 10 -3 6 -1 10 4 10 6 0 11 -4
11 -10z m85 -22 c-4 -9 -14 -19 -23 -22 -9 -3 -24 -9 -32 -12 -8 -3 1 8 20 25
33 30 34 31 8 22 -16 -6 -28 -7 -28 -1 0 11 42 19 53 10 4 -4 5 -14 2 -22z
m55 22 c0 -5 -2 -10 -4 -10 -3 0 -8 5 -11 10 -3 6 -1 10 4 10 6 0 11 -4 11
-10z m30 0 c0 -5 -2 -10 -4 -10 -3 0 -8 5 -11 10 -3 6 -1 10 4 10 6 0 11 -4
11 -10z m-1143 -22 c-3 -8 -6 -5 -6 6 -1 11 2 17 5 13 3 -3 4 -12 1 -19z m553
7 c-7 -9 -15 -13 -19 -10 -3 3 1 10 9 15 21 14 24 12 10 -5z m893 -4 c-3 -13
-11 -17 -24 -14 -27 7 -24 28 5 31 19 1 23 -2 19 -17z m-1313 -12 c-7 -11 -14
-18 -17 -15 -3 3 0 12 7 21 18 21 23 19 10 -6z m140 11 c0 -5 -2 -10 -4 -10
-3 0 -8 5 -11 10 -3 6 -1 10 4 10 6 0 11 -4 11 -10z m630 6 c0 -3 -4 -8 -10
-11 -5 -3 -10 -1 -10 4 0 6 5 11 10 11 6 0 10 -2 10 -4z m194 -5 c6 -10 -24
-25 -32 -16 -3 3 0 5 7 5 7 0 9 5 6 10 -3 6 -2 10 4 10 5 0 12 -4 15 -9z
m-660 -10 c3 -5 -1 -11 -9 -14 -9 -4 -12 -1 -8 9 6 16 10 17 17 5z m383 3 c-3
-3 -12 -4 -19 -1 -8 3 -5 6 6 6 11 1 17 -2 13 -5z m173 2 c0 -3 -4 -8 -10 -11
-5 -3 -10 -1 -10 4 0 6 5 11 10 11 6 0 10 -2 10 -4z m-369 -48 c-11 -11 -13
-10 -8 5 4 9 2 17 -3 17 -6 0 -10 5 -10 12 0 8 6 6 17 -5 14 -14 15 -19 4 -29z
m94 20 c6 -4 2 -8 -7 -8 -10 0 -18 7 -18 17 0 9 3 12 8 7 4 -5 12 -12 17 -16z
m-424 -11 c-10 -9 -11 -8 -5 6 3 10 9 15 12 12 3 -3 0 -11 -7 -18z m69 13 c0
-5 -4 -10 -10 -10 -5 0 -10 5 -10 10 0 6 5 10 10 10 6 0 10 -4 10 -10z m320
-10 c0 -5 -2 -10 -4 -10 -3 0 -8 5 -11 10 -3 6 -1 10 4 10 6 0 11 -4 11 -10z
m364 -20 c-6 -6 -10 -2 -11 12 -2 16 1 18 10 9 7 -7 8 -14 1 -21z m-489 10 c3
-5 -1 -10 -10 -10 -9 0 -13 5 -10 10 3 6 8 10 10 10 2 0 7 -4 10 -10z m545 6
c0 -3 -4 -8 -10 -11 -5 -3 -10 -1 -10 4 0 6 5 11 10 11 6 0 10 -2 10 -4z
m-4755 -16 c3 -5 -1 -10 -10 -10 -9 0 -13 5 -10 10 3 6 8 10 10 10 2 0 7 -4
10 -10z m3995 0 c0 -5 -5 -10 -11 -10 -5 0 -7 5 -4 10 3 6 8 10 11 10 2 0 4
-4 4 -10z m37 -5 c0 -17 -13 -20 -21 -6 -4 5 0 12 6 14 7 3 13 6 14 6 0 1 1
-6 1 -14z m58 5 c3 -5 1 -10 -4 -10 -6 0 -11 5 -11 10 0 6 2 10 4 10 3 0 8 -4
11 -10z m85 -11 c0 -14 -5 -19 -17 -17 -24 4 -26 38 -2 38 13 0 19 -7 19 -21z
m70 1 c-20 -13 -33 -13 -25 0 3 6 14 10 23 10 15 0 15 -2 2 -10z m157 -4 c39
-3 57 -16 22 -16 -14 0 -31 -6 -38 -12 -10 -11 -12 -10 -9 2 2 9 -4 15 -14 15
-10 0 -23 6 -29 12 -10 10 -7 11 12 7 13 -4 39 -7 56 -8z m88 -5 c-8 -13 -35
-15 -35 -2 0 5 8 11 18 13 21 5 26 2 17 -11z m-215 -6 c0 -8 -4 -15 -10 -15
-5 0 -7 7 -4 15 4 8 8 15 10 15 2 0 4 -7 4 -15z m-457 -40 c-3 -9 -8 -14 -10
-11 -3 3 -2 9 2 15 9 16 15 13 8 -4z"/>
<path d="M4798 7246 c-57 -15 -116 -59 -124 -92 -12 -48 38 -71 84 -38 49 34
77 34 121 2 40 -29 42 -29 66 -14 49 32 25 114 -41 142 -39 17 -45 17 -106 0z"/>
<path d="M5428 7074 c-40 -21 -50 -46 -32 -72 12 -18 25 -22 67 -22 73 0 111
-25 134 -90 30 -86 64 -109 103 -70 37 37 15 147 -43 208 -54 58 -166 81 -229
46z"/>
<path d="M4598 6896 c-126 -45 -257 -205 -327 -398 -47 -130 -55 -171 -55
-303 -1 -151 16 -218 65 -260 135 -113 321 149 440 617 43 171 39 294 -12 334
-24 20 -72 24 -111 10z m100 -98 c34 -34 -1 -181 -62 -261 -35 -46 -58 -56
-83 -36 -12 11 -14 27 -10 82 6 73 31 127 89 192 32 37 47 42 66 23z m-393
-762 c15 -14 10 -26 -11 -26 -7 0 -12 9 -11 20 2 24 4 24 22 6z m45 -57 c0 -6
5 -7 12 -3 7 4 8 3 4 -5 -6 -9 -11 -9 -22 0 -10 8 -14 8 -14 1 0 -6 -7 -9 -16
-5 -13 5 -13 7 -2 14 10 7 11 9 0 9 -7 0 -10 5 -7 10 7 12 45 -5 45 -21z"/>
<path d="M5271 6694 c-158 -56 -302 -273 -341 -517 -18 -112 -9 -285 20 -362
40 -106 129 -175 226 -175 43 0 144 53 185 97 196 213 276 587 178 830 -33 82
-116 144 -191 143 -18 -1 -53 -8 -77 -16z m180 -84 c60 -32 81 -181 39 -278
-25 -57 -44 -78 -80 -87 -29 -7 -77 31 -84 68 -23 114 -1 210 67 285 23 25 30
26 58 12z m-391 -856 c0 -8 -5 -12 -10 -9 -6 4 -8 11 -5 16 9 14 15 11 15 -7z
m60 2 c0 -3 -4 -8 -10 -11 -5 -3 -10 -1 -10 4 0 6 5 11 10 11 6 0 10 -2 10 -4z
m-38 -28 c-7 -7 -12 -8 -12 -2 0 14 12 26 19 19 2 -3 -1 -11 -7 -17z"/>
<path d="M8405 6610 c3 -5 8 -10 11 -10 2 0 4 5 4 10 0 6 -5 10 -11 10 -5 0
-7 -4 -4 -10z"/>
<path d="M8420 6550 c0 -5 5 -10 11 -10 5 0 7 5 4 10 -3 6 -8 10 -11 10 -2 0
-4 -4 -4 -10z"/>
<path d="M8400 6499 c0 -5 5 -7 10 -4 6 3 10 8 10 11 0 2 -4 4 -10 4 -5 0 -10
-5 -10 -11z"/>
<path d="M8469 6488 c15 -21 31 -23 31 -6 0 6 -3 8 -7 5 -3 -4 -13 -1 -22 6
-14 11 -14 10 -2 -5z"/>
<path d="M8400 6369 c0 -5 5 -7 10 -4 6 3 10 8 10 11 0 2 -4 4 -10 4 -5 0 -10
-5 -10 -11z"/>
<path d="M8421 6194 c0 -11 3 -14 6 -6 3 7 2 16 -1 19 -3 4 -6 -2 -5 -13z"/>
<path d="M8631 6114 c0 -11 3 -14 6 -6 3 7 2 16 -1 19 -3 4 -6 -2 -5 -13z"/>
<path d="M8435 6060 c3 -5 13 -10 21 -10 8 0 14 5 14 10 0 6 -9 10 -21 10 -11
0 -17 -4 -14 -10z"/>
<path d="M8400 6050 c0 -5 5 -10 11 -10 5 0 7 5 4 10 -3 6 -8 10 -11 10 -2 0
-4 -4 -4 -10z"/>
<path d="M8401 6014 c0 -11 3 -14 6 -6 3 7 2 16 -1 19 -3 4 -6 -2 -5 -13z"/>
<path d="M8393 5968 c2 -12 11 -22 20 -24 22 -3 21 2 -3 26 -20 20 -20 20 -17
-2z"/>
<path d="M8378 5923 c6 -2 18 -2 25 0 6 3 1 5 -13 5 -14 0 -19 -2 -12 -5z"/>
<path d="M8390 5892 c0 -5 7 -9 15 -9 8 0 12 4 9 9 -3 4 -9 8 -15 8 -5 0 -9
-4 -9 -8z"/>
<path d="M8390 5859 c0 -5 5 -7 10 -4 6 3 10 8 10 11 0 2 -4 4 -10 4 -5 0 -10
-5 -10 -11z"/>
<path d="M4450 5772 c-60 -48 -26 -228 62 -327 110 -126 315 -104 408 42 56
87 32 194 -40 180 -15 -4 -49 -20 -76 -37 -50 -32 -85 -36 -145 -20 -41 12
-68 38 -99 98 -20 39 -62 82 -80 82 -4 0 -18 -8 -30 -18z"/>
<path d="M8290 5641 c0 -5 5 -13 10 -16 6 -3 10 -2 10 4 0 5 -4 13 -10 16 -5
3 -10 2 -10 -4z"/>
<path d="M8241 5544 c0 -11 3 -14 6 -6 3 7 2 16 -1 19 -3 4 -6 -2 -5 -13z"/>
<path d="M8129 5403 c-13 -16 -12 -17 4 -4 9 7 17 15 17 17 0 8 -8 3 -21 -13z"/>
<path d="M8072 5214 c-32 -16 -50 -34 -34 -34 7 0 12 5 12 11 0 6 6 9 14 6 8
-3 20 1 27 9 16 20 9 23 -19 8z"/>
<path d="M8696 5212 c-9 -27 -5 -34 10 -24 7 4 8 16 4 27 -7 19 -7 19 -14 -3z"/>
<path d="M8005 5140 c4 -6 11 -8 16 -5 14 9 11 15 -7 15 -8 0 -12 -5 -9 -10z"/>
<path d="M7996 5105 c-3 -8 6 -12 25 -11 16 1 28 5 26 10 -5 14 -45 14 -51 1z"/>
<path d="M7965 5060 c-3 -5 -2 -10 4 -10 5 0 13 5 16 10 3 6 2 10 -4 10 -5 0
-13 -4 -16 -10z"/>
<path d="M7877 4983 c-10 -9 -9 -23 1 -23 5 0 9 7 9 15 0 17 -1 18 -10 8z"/>
<path d="M7833 4923 c9 -2 23 -2 30 0 6 3 -1 5 -18 5 -16 0 -22 -2 -12 -5z"/>
<path d="M7817 4891 c2 -9 -3 -12 -17 -8 -18 4 -19 3 -9 -9 10 -12 14 -13 28
-1 9 8 23 17 31 21 8 3 5 4 -7 2 -12 -2 -24 -1 -26 3 -2 3 -2 0 0 -8z"/>
<path d="M7725 4840 c-3 -5 -1 -10 4 -10 6 0 11 5 11 10 0 6 -2 10 -4 10 -3 0
-8 -4 -11 -10z"/>
<path d="M7633 4735 c0 -8 4 -12 9 -9 5 3 6 10 3 15 -9 13 -12 11 -12 -6z"/>
<path d="M7560 4700 c0 -5 4 -10 9 -10 6 0 13 5 16 10 3 6 -1 10 -9 10 -9 0
-16 -4 -16 -10z"/>
<path d="M7610 4704 c0 -9 40 -23 44 -15 3 5 -5 11 -19 13 -14 3 -25 4 -25 2z"/>
<path d="M7503 4618 c-2 -16 1 -18 10 -9 7 7 8 14 1 21 -6 6 -10 2 -11 -12z"/>
<path d="M7446 4583 c-6 -14 -5 -15 5 -6 7 7 10 15 7 18 -3 3 -9 -2 -12 -12z"/>
<path d="M7408 4553 c7 -3 16 -2 19 1 4 3 -2 6 -13 5 -11 0 -14 -3 -6 -6z"/>
<path d="M7443 4541 c-10 -16 -9 -20 7 -24 11 -3 26 3 36 14 9 10 12 19 6 19
-6 0 -16 2 -24 5 -7 3 -18 -3 -25 -14z m32 -1 c3 -5 -1 -10 -10 -10 -9 0 -13
5 -10 10 3 6 8 10 10 10 2 0 7 -4 10 -10z"/>
<path d="M7241 4374 c13 -16 29 -19 29 -5 0 5 -9 11 -21 14 -16 4 -18 3 -8 -9z"/>
<path d="M7190 4368 c0 -4 7 -8 15 -8 8 0 15 4 15 8 0 5 -7 9 -15 9 -8 0 -15
-4 -15 -9z"/>
<path d="M7138 4353 c7 -3 16 -2 19 1 4 3 -2 6 -13 5 -11 0 -14 -3 -6 -6z"/>
<path d="M7050 4295 c0 -8 2 -15 4 -15 2 0 6 7 10 15 3 8 1 15 -4 15 -6 0 -10
-7 -10 -15z"/>
<path d="M8390 4269 c0 -5 5 -7 10 -4 6 3 10 8 10 11 0 2 -4 4 -10 4 -5 0 -10
-5 -10 -11z"/>
<path d="M8346 4221 c-4 -7 -5 -15 -2 -18 9 -9 19 4 14 18 -4 11 -6 11 -12 0z"/>
<path d="M6754 4159 c-8 -13 24 -18 35 -6 7 9 5 13 -10 13 -11 0 -22 -3 -25
-7z"/>
<path d="M6680 4096 c0 -2 7 -6 15 -10 8 -3 15 -1 15 4 0 6 -7 10 -15 10 -8 0
-15 -2 -15 -4z"/>
<path d="M6573 4053 c-7 -2 -13 -11 -13 -19 0 -17 26 -8 34 12 6 14 0 16 -21
7z"/>
<path d="M6435 4010 c-3 -5 -2 -10 4 -10 5 0 13 5 16 10 3 6 2 10 -4 10 -5 0
-13 -4 -16 -10z"/>
<path d="M6345 3950 c-3 -5 -1 -10 4 -10 6 0 11 5 11 10 0 6 -2 10 -4 10 -3 0
-8 -4 -11 -10z"/>
<path d="M8165 3950 c3 -5 8 -10 11 -10 2 0 4 5 4 10 0 6 -5 10 -11 10 -5 0
-7 -4 -4 -10z"/>
<path d="M6377 3939 c7 -7 15 -10 18 -7 3 3 -2 9 -12 12 -14 6 -15 5 -6 -5z"/>
<path d="M5785 3860 c-8 -13 9 -20 24 -11 10 6 9 10 -3 14 -8 3 -18 2 -21 -3z"/>
<path d="M5420 3850 c0 -5 7 -10 16 -10 8 0 12 5 9 10 -3 6 -10 10 -16 10 -5
0 -9 -4 -9 -10z"/>
<path d="M5355 3831 c-6 -11 13 -26 22 -17 4 3 0 6 -8 6 -11 0 -11 2 1 10 9 6
10 10 3 10 -6 0 -14 -4 -18 -9z"/>
<path d="M5460 3830 c-11 -7 -12 -12 -4 -20 8 -8 13 -6 17 9 3 12 4 21 4 21
-1 0 -9 -5 -17 -10z"/>
<path d="M5658 3833 c7 -3 16 -2 19 1 4 3 -2 6 -13 5 -11 0 -14 -3 -6 -6z"/>
<path d="M5743 3833 c9 -2 23 -2 30 0 6 3 -1 5 -18 5 -16 0 -22 -2 -12 -5z"/>
<path d="M5485 3810 c4 -6 11 -8 16 -5 14 9 11 15 -7 15 -8 0 -12 -5 -9 -10z"/>
<path d="M7835 3620 c-3 -5 -2 -10 4 -10 5 0 13 5 16 10 3 6 2 10 -4 10 -5 0
-13 -4 -16 -10z"/>
<path d="M7095 3210 c-3 -5 -1 -10 4 -10 6 0 11 5 11 10 0 6 -2 10 -4 10 -3 0
-8 -4 -11 -10z"/>
<path d="M7138 3213 c6 -2 18 -2 25 0 6 3 1 5 -13 5 -14 0 -19 -2 -12 -5z"/>
<path d="M6870 3140 c0 -5 5 -10 10 -10 6 0 10 5 10 10 0 6 -4 10 -10 10 -5 0
-10 -4 -10 -10z"/>
<path d="M6455 3050 c-3 -5 1 -10 9 -10 9 0 16 5 16 10 0 6 -4 10 -9 10 -6 0
-13 -4 -16 -10z"/>
<path d="M2851 7170 c-53 -13 -77 -29 -100 -70 -24 -43 -27 -70 -9 -88 21 -21
49 -13 89 23 34 31 46 35 92 35 29 0 77 -7 106 -16 59 -17 86 -12 94 17 16 60
-164 126 -272 99z"/>
<path d="M3040 6862 c-61 -30 -83 -59 -106 -142 -53 -188 58 -519 235 -700 71
-72 124 -100 192 -100 92 0 162 54 194 151 18 54 21 212 6 264 -6 19 -16 52
-22 73 -54 189 -175 351 -314 422 -62 31 -154 47 -185 32z m158 -73 c57 -32
95 -69 125 -122 21 -39 22 -61 1 -81 -38 -39 -122 -5 -212 84 -61 61 -76 104
-46 134 24 25 72 19 132 -15z"/>
<path d="M3232 5804 c-12 -8 -36 -42 -52 -73 -64 -129 -173 -170 -335 -127
-57 15 -61 15 -85 -2 -17 -13 -26 -31 -28 -54 -3 -29 4 -43 42 -85 65 -72 127
-98 236 -98 96 0 149 19 213 74 73 65 135 214 121 295 -7 43 -43 86 -71 86
-10 0 -29 -7 -41 -16z"/>
<path d="M3427 4503 c-4 -3 -7 -13 -7 -21 0 -18 13 -7 16 13 2 17 1 18 -9 8z"/>
<path d="M3550 4500 c0 -6 -7 -10 -16 -8 -10 2 -19 -3 -21 -10 -4 -9 1 -10 20
-3 14 5 28 7 31 4 3 -4 6 1 6 10 0 10 -4 17 -10 17 -5 0 -10 -5 -10 -10z"/>
<path d="M3265 4471 c-3 -5 -1 -12 5 -16 5 -3 10 1 10 9 0 18 -6 21 -15 7z"/>
<path d="M3650 4436 c0 -2 7 -7 16 -10 8 -3 12 -2 9 4 -6 10 -25 14 -25 6z"/>
<path d="M2955 4320 c3 -5 8 -10 11 -10 2 0 4 5 4 10 0 6 -5 10 -11 10 -5 0
-7 -4 -4 -10z"/>
<path d="M2895 4300 c-3 -5 -1 -10 4 -10 6 0 11 5 11 10 0 6 -2 10 -4 10 -3 0
-8 -4 -11 -10z"/>
<path d="M2880 4270 c0 -5 5 -10 11 -10 5 0 7 5 4 10 -3 6 -8 10 -11 10 -2 0
-4 -4 -4 -10z"/>
<path d="M3660 4270 c0 -5 5 -10 10 -10 6 0 10 5 10 10 0 6 -4 10 -10 10 -5 0
-10 -4 -10 -10z"/>
<path d="M3370 3971 c0 -5 -7 -17 -16 -25 -8 -9 -10 -16 -4 -16 6 0 13 7 16
15 4 8 13 15 21 15 8 0 11 5 8 10 -8 13 -25 13 -25 1z"/>
<path d="M3265 3879 c-9 -14 -2 -20 14 -10 8 6 9 11 3 15 -6 3 -14 1 -17 -5z"/>
<path d="M3204 3825 c-18 -14 -18 -14 4 -8 12 3 22 9 22 14 0 12 -3 11 -26 -6z"/>
<path d="M3140 3789 c0 -5 5 -7 10 -4 6 3 10 8 10 11 0 2 -4 4 -10 4 -5 0 -10
-5 -10 -11z"/>
<path d="M1520 2534 c-14 -37 -12 -61 6 -68 33 -13 63 38 44 74 -15 28 -39 25
-50 -6z"/>
<path d="M1451 1820 c-1 -8 -4 -44 -6 -80 -3 -47 -1 -60 6 -48 5 10 8 46 6 80
-2 35 -4 56 -6 48z"/>
<path d="M1430 1649 c0 -11 5 -17 10 -14 6 3 10 13 10 21 0 8 -4 14 -10 14 -5
0 -10 -9 -10 -21z"/>
<path d="M1475 1439 c-4 -6 -4 -13 -1 -16 3 -4 6 -1 6 5 0 6 8 13 18 15 15 4
15 5 0 6 -9 0 -20 -4 -23 -10z"/>
<path d="M2356 4588 c3 -4 9 -8 15 -8 5 0 9 4 9 8 0 5 -7 9 -15 9 -8 0 -12 -4
-9 -9z"/>
<path d="M2335 4320 c3 -5 8 -10 11 -10 2 0 4 5 4 10 0 6 -5 10 -11 10 -5 0
-7 -4 -4 -10z"/>
<path d="M2471 3874 c0 -11 3 -14 6 -6 3 7 2 16 -1 19 -3 4 -6 -2 -5 -13z"/>
<path d="M2475 3840 c3 -5 8 -10 11 -10 2 0 4 5 4 10 0 6 -5 10 -11 10 -5 0
-7 -4 -4 -10z"/>
<path d="M2485 3770 c3 -5 8 -10 11 -10 2 0 4 5 4 10 0 6 -5 10 -11 10 -5 0
-7 -4 -4 -10z"/>
<path d="M2685 2529 c-11 -17 -2 -18 25 -4 24 14 24 14 3 15 -12 0 -25 -5 -28
-11z"/>
<path d="M2686 2494 c-35 -34 -5 -114 42 -114 56 0 73 68 28 107 -32 27 -49
29 -70 7z"/>
<path d="M2961 1365 c0 -11 4 -38 8 -60 l9 -40 0 40 c0 22 -3 49 -8 60 l-9 20
0 -20z"/>
<path d="M4422 3956 c7 -8 15 -12 17 -11 5 6 -10 25 -20 25 -5 0 -4 -6 3 -14z"/>
<path d="M4555 3820 c-3 -5 -1 -10 4 -10 6 0 11 5 11 10 0 6 -2 10 -4 10 -3 0
-8 -4 -11 -10z"/>
<path d="M4670 3705 c7 -8 16 -15 21 -15 5 0 6 7 3 15 -4 8 -13 15 -21 15 -13
0 -13 -3 -3 -15z"/>
<path d="M4950 3486 c0 -2 7 -9 15 -16 13 -11 14 -10 9 4 -5 14 -24 23 -24 12z"/>
<path d="M5624 3175 c-10 -8 -14 -14 -9 -14 6 0 19 6 29 14 11 8 15 15 10 15
-6 0 -19 -7 -30 -15z"/>
<path d="M4115 3920 c-3 -5 -1 -10 4 -10 6 0 11 5 11 10 0 6 -2 10 -4 10 -3 0
-8 -4 -11 -10z"/>
<path d="M4100 3870 c0 -5 5 -10 10 -10 6 0 10 5 10 10 0 6 -4 10 -10 10 -5 0
-10 -4 -10 -10z"/>
<path d="M6236 1365 c-3 -8 -1 -15 4 -15 6 0 10 7 10 15 0 8 -2 15 -4 15 -2 0
-6 -7 -10 -15z"/>
<path d="M2085 1500 c3 -5 11 -10 16 -10 6 0 7 5 4 10 -3 6 -11 10 -16 10 -6
0 -7 -4 -4 -10z"/>
<path d="M6430 1450 c0 -5 5 -10 10 -10 6 0 10 5 10 10 0 6 -4 10 -10 10 -5 0
-10 -4 -10 -10z"/>
<path d="M7739 1383 c-9 -11 -10 -14 -1 -9 8 5 12 1 12 -13 0 -11 4 -22 9 -26
9 -5 7 53 -2 62 -2 2 -10 -4 -18 -14z"/>
<path d="M6885 1270 c-3 -5 -1 -10 4 -10 6 0 11 5 11 10 0 6 -2 10 -4 10 -3 0
-8 -4 -11 -10z"/>
<path d="M4441 1734 c0 -11 3 -14 6 -6 3 7 2 16 -1 19 -3 4 -6 -2 -5 -13z"/>
<path d="M7476 1653 c-6 -14 -5 -15 5 -6 7 7 10 15 7 18 -3 3 -9 -2 -12 -12z"/>
<path d="M7255 1650 c-16 -7 -17 -9 -3 -9 9 -1 20 4 23 9 7 11 7 11 -20 0z"/>
<path d="M7280 1629 c0 -5 5 -7 10 -4 6 3 10 8 10 11 0 2 -4 4 -10 4 -5 0 -10
-5 -10 -11z"/>
<path d="M7578 1633 c7 -3 16 -2 19 1 4 3 -2 6 -13 5 -11 0 -14 -3 -6 -6z"/>
<path d="M3360 1611 c0 -5 7 -12 16 -15 14 -5 15 -4 4 9 -14 17 -20 19 -20 6z"/>
<path d="M7613 1595 c-8 -9 -9 -16 -3 -20 6 -4 8 -10 6 -14 -3 -4 1 -8 9 -8
18 0 20 14 3 20 -10 3 -10 7 1 20 16 20 1 22 -16 2z"/>
<path d="M3456 1579 c9 -10 24 -17 35 -16 25 2 25 17 -1 17 -11 0 -20 4 -20 8
0 5 -7 9 -15 9 -13 0 -13 -3 1 -18z"/>
<path d="M7526 1585 c4 -8 8 -15 10 -15 2 0 4 7 4 15 0 8 -4 15 -10 15 -5 0
-7 -7 -4 -15z"/>
<path d="M7666 1585 c-11 -8 -18 -17 -15 -19 2 -2 15 4 28 15 27 22 15 26 -13
4z"/>
<path d="M7775 1590 c-3 -6 1 -7 9 -4 18 7 21 14 7 14 -6 0 -13 -4 -16 -10z"/>
<path d="M3403 1563 c2 -18 -1 -34 -7 -37 -6 -2 -1 -3 11 -3 26 1 41 27 16 27
-14 0 -14 2 3 16 10 8 13 12 5 8 -7 -3 -18 0 -23 7 -7 10 -8 4 -5 -18z"/>
<path d="M5717 1579 c7 -7 15 -10 18 -7 3 3 -2 9 -12 12 -14 6 -15 5 -6 -5z"/>
<path d="M5850 1582 c0 -5 7 -9 15 -9 8 0 15 4 15 9 0 4 -7 8 -15 8 -8 0 -15
-4 -15 -8z"/>
<path d="M8016 1577 c3 -10 9 -15 12 -12 3 3 0 11 -7 18 -10 9 -11 8 -5 -6z"/>
<path d="M3315 1560 c3 -5 12 -10 20 -10 8 0 17 5 20 10 4 6 -5 10 -20 10 -15
0 -24 -4 -20 -10z"/>
<path d="M3506 1554 c-11 -7 -16 -17 -13 -21 4 -4 15 1 24 10 22 21 14 30 -11
11z"/>
<path d="M3361 1546 c-7 -8 -8 -17 -3 -20 6 -3 12 3 15 14 6 24 4 25 -12 6z"/>
<path d="M3451 1537 c-6 -8 -8 -17 -4 -20 7 -8 33 11 33 24 0 13 -16 11 -29
-4z"/>
<path d="M3265 1530 c-3 -5 -1 -10 4 -10 6 0 11 5 11 10 0 6 -2 10 -4 10 -3 0
-8 -4 -11 -10z"/>
<path d="M7891 1521 c-8 -5 -9 -11 -3 -15 5 -3 12 1 16 9 6 17 6 18 -13 6z"/>
<path d="M7932 1510 c0 -14 2 -19 5 -12 2 6 2 18 0 25 -3 6 -5 1 -5 -13z"/>
<path d="M2395 1510 c-3 -5 -1 -10 4 -10 6 0 11 5 11 10 0 6 -2 10 -4 10 -3 0
-8 -4 -11 -10z"/>
<path d="M7785 1509 c-11 -16 -1 -19 13 -3 7 8 8 14 3 14 -5 0 -13 -5 -16 -11z"/>
<path d="M3270 1500 c8 -5 20 -10 25 -10 6 0 3 5 -5 10 -8 5 -19 10 -25 10 -5
0 -3 -5 5 -10z"/>
<path d="M7746 1497 c32 -53 36 -57 55 -46 10 5 19 15 19 21 0 9 -3 9 -12 0
-15 -15 -32 -16 -23 -2 4 6 1 9 -7 8 -7 -2 -12 2 -11 9 1 6 -4 14 -13 17 -10
4 -13 2 -8 -7z"/>
<path d="M7845 1500 c4 -6 11 -8 16 -5 14 9 11 15 -7 15 -8 0 -12 -5 -9 -10z"/>
<path d="M3646 1484 c-4 -9 -4 -19 -1 -22 2 -3 7 3 11 12 4 9 4 19 1 22 -2 3
-7 -3 -11 -12z"/>
<path d="M8020 1493 c0 -6 6 -14 13 -16 10 -4 10 -6 0 -6 -18 -1 -16 -21 1
-21 17 0 15 25 -2 42 -8 8 -12 9 -12 1z"/>
<path d="M3535 1480 c4 -6 11 -8 16 -5 14 9 11 15 -7 15 -8 0 -12 -5 -9 -10z"/>
<path d="M3586 1474 c-24 -24 -19 -30 7 -8 12 10 24 20 26 21 2 2 -1 3 -7 3
-6 0 -18 -7 -26 -16z"/>
<path d="M8175 1460 c3 -5 8 -10 11 -10 2 0 4 5 4 10 0 6 -5 10 -11 10 -5 0
-7 -4 -4 -10z"/>
<path d="M3520 1450 c0 -5 4 -10 9 -10 6 0 13 5 16 10 3 6 -1 10 -9 10 -9 0
-16 -4 -16 -10z"/>
<path d="M7890 1439 c0 -11 5 -17 10 -14 6 3 10 13 10 21 0 8 -4 14 -10 14 -5
0 -10 -9 -10 -21z"/>
<path d="M8003 1429 c-2 -23 3 -25 10 -4 4 8 3 16 -1 19 -4 3 -9 -4 -9 -15z"/>
<path d="M7800 1432 c0 -15 28 -23 36 -9 4 7 4 9 -1 5 -4 -4 -14 -3 -22 3 -8
7 -13 8 -13 1z"/>
<path d="M7915 1420 c-10 -11 -21 -17 -26 -15 -4 3 -10 1 -14 -4 -3 -6 4 -8
17 -4 13 3 39 5 58 6 19 0 27 2 17 4 -10 3 -14 9 -10 16 4 7 -2 5 -12 -3 -17
-14 -18 -13 -12 3 8 22 4 22 -18 -3z"/>
<path d="M8090 1426 c0 -2 7 -9 15 -16 9 -7 15 -8 15 -2 0 5 -7 12 -15 16 -8
3 -15 4 -15 2z"/>
<path d="M7835 1400 c-3 -5 1 -10 10 -10 9 0 13 5 10 10 -3 6 -8 10 -10 10 -2
0 -7 -4 -10 -10z"/>
<path d="M8145 1400 c-3 -5 1 -10 10 -10 9 0 13 5 10 10 -3 6 -8 10 -10 10 -2
0 -7 -4 -10 -10z"/>
<path d="M7996 1376 c4 -16 1 -25 -11 -30 -9 -3 -13 -10 -10 -16 3 -6 16 1 29
15 13 14 30 25 37 25 8 1 3 7 -11 15 -35 20 -41 18 -34 -9z"/>
<path d="M8066 1377 c3 -10 9 -15 12 -12 3 3 0 11 -7 18 -10 9 -11 8 -5 -6z"/>
<path d="M8200 1379 c0 -5 5 -7 10 -4 6 3 10 8 10 11 0 2 -4 4 -10 4 -5 0 -10
-5 -10 -11z"/>
<path d="M8120 1370 c0 -5 5 -10 11 -10 5 0 7 5 4 10 -3 6 -8 10 -11 10 -2 0
-4 -4 -4 -10z"/>
<path d="M8256 1365 c-3 -8 -1 -15 4 -15 6 0 10 7 10 15 0 8 -2 15 -4 15 -2 0
-6 -7 -10 -15z"/>
<path d="M8188 1353 c7 -3 16 -2 19 1 4 3 -2 6 -13 5 -11 0 -14 -3 -6 -6z"/>
<path d="M2445 1340 c-3 -6 1 -7 9 -4 18 7 21 14 7 14 -6 0 -13 -4 -16 -10z"/>
<path d="M7920 1333 c0 -11 -3 -13 -13 -5 -8 7 -18 8 -27 1 -12 -8 -11 -9 5
-7 11 2 19 -2 18 -8 -2 -9 4 -9 22 0 29 13 31 21 10 30 -9 3 -15 -1 -15 -11z"/>
<path d="M8097 1330 c3 -11 7 -20 9 -20 2 0 4 9 4 20 0 11 -4 20 -9 20 -5 0
-7 -9 -4 -20z"/>
<path d="M8145 1341 c-3 -6 -3 -11 2 -11 4 0 1 -5 -7 -10 -10 -7 -11 -10 -2
-10 7 0 15 7 19 15 7 19 -2 31 -12 16z"/>
<path d="M8020 1315 c0 -8 2 -15 4 -15 2 0 6 7 10 15 3 8 1 15 -4 15 -6 0 -10
-7 -10 -15z"/>
<path d="M8065 1320 c3 -5 8 -10 11 -10 2 0 4 5 4 10 0 6 -5 10 -11 10 -5 0
-7 -4 -4 -10z"/>
<path d="M7695 1290 c-4 -6 -3 -9 2 -8 4 2 8 -1 8 -7 0 -5 -3 -9 -7 -8 -3 1
-9 -4 -12 -12 -3 -8 -1 -15 4 -15 15 0 50 33 50 47 0 15 -36 17 -45 3z"/>
<path d="M7867 1287 c-3 -8 -1 -20 4 -28 7 -11 10 -12 21 -1 11 11 10 13 -2
10 -10 -2 -14 3 -12 15 3 20 -4 23 -11 4z"/>
<path d="M7826 1274 c-5 -14 -4 -15 9 -4 17 14 19 20 6 20 -5 0 -12 -7 -15
-16z"/>
<path d="M7520 1259 c0 -5 5 -7 10 -4 6 3 10 8 10 11 0 2 -4 4 -10 4 -5 0 -10
-5 -10 -11z"/>
<path d="M7740 1250 c-8 -5 -10 -10 -5 -10 6 0 17 5 25 10 8 5 11 10 5 10 -5
0 -17 -5 -25 -10z"/>
<path d="M6820 1224 c0 -8 5 -12 10 -9 6 3 10 10 10 16 0 5 -4 9 -10 9 -5 0
-10 -7 -10 -16z"/>
<path d="M7415 1230 c-3 -5 -1 -10 4 -10 6 0 11 5 11 10 0 6 -2 10 -4 10 -3 0
-8 -4 -11 -10z"/>
<path d="M6845 1221 c-3 -5 -1 -12 4 -15 5 -3 11 1 15 9 6 16 -9 21 -19 6z"/>
<path d="M7280 1219 c0 -5 5 -7 10 -4 6 3 10 8 10 11 0 2 -4 4 -10 4 -5 0 -10
-5 -10 -11z"/>
<path d="M6650 1206 c0 -2 8 -10 18 -17 15 -13 16 -12 3 4 -13 16 -21 21 -21
13z"/>
</g>
</svg>
